<svg version="1.1" id="Layer_1" xmlns="http://www.w3.org/2000/svg" xmlns:xlink="http://www.w3.org/1999/xlink" x="0px" y="0px"
	 width="100%" viewBox="0 0 1024 1024" enable-background="new 0 0 1024 1024" xml:space="preserve">
<path fill="#000000" opacity="1.000000" stroke="none" 
	d="
M556.005493,470.148376 
	C510.480682,483.019043 470.972229,505.973846 435.487335,536.550354 
	C441.566650,525.103516 451.513641,517.205139 460.363129,508.401978 
	C459.445038,505.526550 456.961182,505.048492 454.912781,504.204529 
	C424.442566,491.650818 392.732513,486.011932 359.799530,487.381104 
	C356.647919,487.512146 353.477631,487.825043 350.377106,488.389282 
	C346.735443,489.052032 344.986237,487.429840 343.507294,484.290161 
	C334.985992,466.200378 329.931061,447.089111 326.851685,427.449158 
	C321.145874,391.058014 324.476105,355.377380 336.797638,320.701355 
	C354.491760,270.905548 385.961090,232.706451 433.177521,208.094498 
	C446.146667,201.334213 459.709869,196.518967 474.496094,195.833038 
	C476.980957,195.717758 477.089722,195.663330 480.319550,196.995010 
	C478.495483,198.848495 476.145599,198.961212 474.039429,199.543900 
	C440.409790,208.847626 410.741394,225.198822 386.624786,250.534851 
	C357.681274,280.941833 340.595428,317.424988 333.205292,358.671143 
	C326.645691,395.281738 331.232544,430.900330 341.722137,466.116882 
	C342.847870,469.896271 344.684296,471.180389 348.681244,470.127258 
	C354.145203,468.687622 359.747070,467.752411 365.312988,466.726562 
	C368.219452,466.190826 369.708374,464.715820 369.705963,461.679260 
	C369.697601,451.181458 369.756256,440.683594 369.777954,430.185760 
	C369.780792,428.822693 369.601776,427.459534 368.405426,426.589203 
	C360.818115,421.069275 359.554840,412.646088 358.955658,404.360779 
	C358.248535,394.583405 359.197174,384.850555 361.188843,375.128510 
	C362.746826,367.523560 361.130188,359.488037 362.708557,351.768188 
	C365.903564,336.141296 365.894531,320.021149 370.021332,304.548615 
	C370.638519,302.234650 370.795227,299.568573 373.142120,298.049591 
	C375.775879,298.748871 375.850586,300.969055 376.309570,302.795868 
	C378.950958,313.308502 380.390656,324.000977 381.419647,334.791199 
	C382.095062,341.874023 383.968628,348.808655 384.503601,355.957306 
	C385.518829,369.524231 387.004364,383.057190 387.933655,396.628937 
	C388.448120,404.142303 387.563110,411.606201 384.502136,418.633179 
	C383.840576,420.151855 383.320312,422.135284 382.099365,422.938751 
	C376.100952,426.886108 377.013885,432.791779 377.116028,438.575104 
	C377.224884,444.739319 377.126404,450.907349 377.246826,457.071198 
	C377.383423,464.065430 378.243286,465.031342 385.124237,464.699677 
	C404.206604,463.779846 423.053497,465.819275 441.808502,468.987915 
	C445.559448,469.621613 449.196777,470.934906 452.880280,471.957275 
	C454.392914,472.377106 455.877747,473.120483 458.825195,471.917786 
	C454.332916,470.680817 451.046967,469.739563 447.741547,468.872498 
	C437.179596,466.101959 429.681763,459.442291 424.434326,450.149658 
	C423.432861,448.376160 422.006317,448.024811 420.535736,447.459808 
	C417.104980,446.141754 413.684570,444.837982 410.848419,442.400208 
	C404.790863,437.193481 405.306793,430.422363 412.232330,426.495544 
	C419.570709,422.334656 427.679413,420.299164 435.897797,418.884918 
	C439.853729,418.204132 442.992035,417.431000 444.797607,413.116425 
	C446.457367,409.150299 450.600159,407.261078 454.345856,405.423920 
	C456.447693,404.393036 457.768311,403.155060 458.257477,400.735840 
	C459.733582,393.435883 464.452911,388.599121 471.053528,385.797028 
	C474.946564,384.144409 476.441254,381.747131 475.883728,377.727905 
	C475.295502,373.487762 477.062897,372.437866 481.101105,373.512238 
	C486.893250,375.053345 492.745392,375.820770 498.600739,373.306885 
	C500.628937,372.436127 503.069153,372.176331 502.788818,369.290558 
	C502.457886,365.883881 504.647705,361.769409 500.357513,359.357819 
	C498.326569,358.216248 496.114777,357.379059 494.148499,356.143616 
	C490.690460,353.970978 489.320160,351.240295 489.433655,346.645416 
	C489.549622,341.949097 489.913452,337.060730 490.400269,332.561432 
	C490.888977,328.044281 489.732635,323.027710 492.226013,318.704620 
	C493.243561,316.940369 492.591797,315.195587 492.109711,313.395538 
	C490.347107,306.813629 491.755890,301.157318 497.406219,296.974182 
	C499.708466,295.269745 500.741577,293.211670 501.033722,290.286530 
	C502.457245,276.031799 503.433533,261.757812 503.801056,247.436691 
	C503.861389,245.086441 503.209015,242.336166 506.553192,240.504028 
	C509.871063,244.650528 507.755280,249.401337 508.068054,253.705551 
	C508.391113,258.150818 508.139893,262.637787 508.625916,267.126801 
	C512.032654,257.178162 508.902588,246.344238 513.201050,236.432846 
	C516.660645,247.626205 513.787720,259.295441 516.619690,271.233093 
	C517.533813,260.738373 518.379517,250.996399 518.308105,241.186539 
	C518.285950,238.148651 517.255310,233.141571 520.549866,233.004898 
	C524.698303,232.832825 523.011230,237.843567 523.187134,240.659210 
	C524.090576,255.121857 524.336548,269.606934 524.456421,284.098663 
	C524.505127,289.988831 522.816956,294.782410 518.386536,298.753906 
	C511.555054,304.877655 513.195679,313.006561 513.671448,320.749420 
	C513.785706,322.608063 515.868042,323.053009 517.323730,323.821869 
	C520.114563,325.295990 523.072266,326.540100 525.629517,328.348175 
	C528.680054,330.504913 530.824890,333.316681 527.856873,337.150818 
	C527.015991,338.237213 526.910095,339.248016 527.703003,340.326019 
	C530.538940,344.181702 528.886475,346.782501 525.231628,348.735352 
	C530.515320,354.950562 530.514771,355.311096 524.892334,361.030396 
	C529.357605,364.582886 531.800171,369.294159 532.112671,375.061859 
	C532.225159,377.139526 533.845276,378.179199 535.581116,378.961243 
	C539.419556,380.690552 543.427124,381.700073 547.655518,381.687836 
	C550.358765,381.679993 552.464966,382.285156 551.590942,385.681793 
	C550.894043,388.390076 552.662964,389.633972 554.422363,390.953033 
	C558.008484,393.641602 560.799133,396.893799 561.223511,401.555176 
	C561.432983,403.855469 563.025208,404.480072 564.720825,405.268951 
	C569.099670,407.306152 572.703857,410.041107 573.756836,415.192780 
	C574.310974,417.903778 576.299255,418.714142 578.960022,418.830475 
	C588.249023,419.236542 597.002014,421.918671 605.300171,425.924896 
	C613.963379,430.107452 614.432617,437.815094 606.491943,443.420624 
	C604.472351,444.846313 602.192993,445.989960 599.891052,446.906830 
	C597.282227,447.945923 594.536133,448.617920 593.312378,452.064789 
	C590.746582,449.933228 588.363525,450.351532 585.712219,451.097900 
	C577.522766,453.403351 569.072876,454.336609 560.643127,455.337311 
	C558.986084,455.534027 556.409546,454.409607 556.596863,457.964508 
	C556.667908,459.311737 554.870728,459.162994 553.783447,459.478363 
	C537.764160,464.124817 522.191650,469.879303 507.118439,477.111908 
	C502.320984,479.413879 497.860229,481.925812 493.761536,485.343109 
	C496.118530,485.737274 497.974609,484.552795 499.883209,483.566162 
	C538.598755,463.552338 579.771545,453.445709 623.328430,453.076569 
	C628.315491,453.034271 633.308838,453.538239 638.296631,453.833130 
	C641.888550,454.045441 643.611084,452.217468 643.652222,448.806854 
	C643.728516,442.475891 643.673340,436.143188 643.651367,429.811310 
	C643.647217,428.618469 643.402344,427.427734 642.459961,426.621857 
	C633.108337,418.624847 632.625000,407.544983 633.084534,396.749573 
	C633.796875,380.015106 634.732544,363.192657 637.248718,346.662476 
	C639.369507,332.729828 640.141357,318.552826 643.763794,304.855133 
	C644.450562,302.258148 644.109985,298.102386 647.424805,298.065704 
	C650.512146,298.031555 650.137695,302.108154 650.668701,304.549286 
	C652.929871,314.946136 653.669861,325.695038 655.797119,335.978363 
	C659.458862,353.678650 658.469421,371.688934 661.650330,389.330780 
	C663.167419,397.744873 662.435425,406.271240 660.118835,414.577515 
	C659.170105,417.979156 658.213562,421.731628 655.375427,423.757141 
	C651.130737,426.786591 650.876709,430.712036 651.027466,435.163513 
	C651.196594,440.157928 651.252136,445.162048 651.150085,450.157745 
	C651.075623,453.799042 652.827698,455.689087 656.194153,456.494263 
	C662.345154,457.965363 668.541809,459.290497 674.603760,461.070465 
	C677.865967,462.028320 679.140869,460.878143 680.093506,458.016113 
	C684.422668,445.009949 687.077820,431.630768 688.615845,418.061493 
	C692.787659,381.254974 688.058167,345.544525 673.671570,311.409485 
	C649.459351,253.961594 607.779053,215.898636 547.252258,199.203812 
	C545.631897,198.756882 543.638733,198.829742 542.417908,196.738739 
	C544.520813,195.126755 546.685913,195.871277 548.724915,195.942902 
	C568.612793,196.641571 585.623779,205.297028 602.003967,215.480209 
	C645.730652,242.664017 672.817810,282.292236 687.112427,331.051270 
	C699.314392,372.672485 699.669250,414.443420 686.283264,455.969879 
	C684.400513,461.810547 681.647156,467.374298 679.209900,473.028778 
	C678.795471,473.990387 678.467529,475.340973 676.825623,475.221130 
	C675.418823,473.638000 676.496277,471.942749 677.002319,470.599976 
	C678.669434,466.176819 676.709351,464.318726 672.649414,463.782074 
	C653.325562,461.227814 633.985962,459.626923 614.429688,460.751648 
	C594.734619,461.884399 575.387207,464.738068 556.005493,470.148376 
M547.659485,443.811676 
	C549.403259,442.855194 551.714172,442.682495 553.019165,439.947418 
	C546.441895,438.510925 540.328796,437.175812 534.215759,435.840668 
	C536.727478,438.350403 539.536072,439.508820 542.725647,440.067383 
	C544.605774,440.396576 547.951660,440.199310 546.301331,444.210876 
	C542.963684,445.138092 539.557800,445.926666 536.758911,448.783447 
	C539.740051,448.783447 542.337646,448.783447 545.181824,448.783447 
	C545.319275,446.915253 545.466309,445.138947 547.659485,443.811676 
M452.996918,429.139557 
	C452.926239,425.256897 451.893066,421.667786 449.631348,417.318909 
	C448.430054,422.955200 451.500549,426.259521 453.019257,430.796875 
	C452.710602,434.974243 455.266876,437.143616 458.638000,438.649475 
	C464.465118,441.252350 470.629333,441.788330 476.974854,441.443665 
	C467.796021,440.034943 459.208954,437.506378 452.996918,429.139557 
M460.997253,499.410553 
	C466.094727,503.363464 470.755371,502.164124 475.263977,498.287781 
	C476.390656,497.319092 477.771393,496.652527 478.982056,495.773682 
	C482.917877,492.916382 482.838531,491.059967 478.428680,489.197479 
	C456.998322,480.146362 434.701538,474.312439 411.518921,472.376526 
	C392.776459,470.811371 374.022064,470.821991 355.271393,473.149109 
	C343.967255,474.552063 343.826172,474.267700 347.496307,484.892975 
	C347.598236,485.187958 347.867554,485.425110 348.527618,486.336792 
	C387.040924,477.129120 424.346069,482.563782 460.997253,499.410553 
M431.998810,430.800934 
	C433.208130,429.208466 434.417480,427.616028 435.876526,425.694794 
	C429.065552,426.019318 423.119629,427.349426 417.733459,430.486786 
	C413.510376,432.946747 413.523163,435.234009 417.840149,437.641541 
	C421.993622,439.957916 426.342163,441.979095 431.933136,441.667175 
	C430.322113,438.088623 430.013245,434.737366 431.998810,430.800934 
M596.938782,439.503357 
	C598.136292,438.927094 599.399902,438.455170 600.515015,437.748840 
	C602.000488,436.807892 604.177124,436.207642 603.949158,433.939362 
	C603.740662,431.865204 601.841064,430.999817 600.142029,430.374756 
	C596.404541,428.999817 592.630371,427.695862 588.801453,426.608337 
	C586.295593,425.896576 584.385559,427.060547 585.698669,429.671570 
	C587.908752,434.066467 588.710144,438.147522 584.200500,442.682159 
	C589.420593,442.333527 592.810242,441.005737 596.938782,439.503357 
M481.755890,426.279694 
	C472.391937,425.427429 464.686340,421.002380 457.821411,414.105225 
	C456.296814,423.916290 460.000275,430.723969 467.953613,433.311127 
	C477.306335,436.353516 486.620148,434.593994 495.872772,432.602905 
	C493.909027,432.413147 491.963928,432.590607 490.026520,432.830414 
	C480.680542,433.987244 471.774658,432.460052 463.356812,428.294922 
	C461.728882,427.489471 459.954041,426.035126 460.889130,423.973419 
	C461.831696,421.895294 463.779175,422.976105 465.238068,423.646454 
	C474.387817,427.850677 484.025085,427.014709 493.639496,426.283234 
	C489.988525,426.283234 486.337555,426.283234 481.755890,426.279694 
M445.085785,427.471558 
	C444.895935,427.208435 444.727661,426.924133 444.502960,426.695221 
	C444.436218,426.627136 444.101624,426.669769 444.073761,426.737366 
	C442.217682,431.248962 445.125488,434.550842 446.998932,438.105042 
	C448.006836,440.017090 450.548004,441.091125 450.336426,444.053986 
	C442.139496,445.386322 441.553833,437.360504 437.453339,433.753754 
	C436.138184,437.312866 438.477814,440.372742 437.692169,444.108826 
	C444.863861,444.261841 451.451202,447.403229 458.810211,446.035522 
	C451.062988,442.243103 446.589874,436.318665 445.085785,427.471558 
M513.397400,443.959381 
	C518.006104,444.089630 522.616760,439.701965 527.711121,443.710815 
	C525.757324,446.451569 523.896484,448.386780 520.803284,448.662720 
	C518.032166,448.909943 515.264038,449.190582 512.494629,449.456451 
	C526.556335,450.537659 526.556335,450.537659 534.169922,442.981445 
	C526.239502,438.680725 518.467163,440.053253 510.950684,444.587860 
	C511.562714,444.433655 512.174744,444.279449 513.397400,443.959381 
M519.800537,365.728729 
	C518.248291,364.842194 516.797546,363.664703 514.842041,363.950836 
	C513.523926,365.062134 513.481689,366.533844 513.500122,368.039490 
	C513.545776,371.773254 515.384216,373.726044 519.123840,374.224304 
	C521.142822,374.493317 523.530579,375.237152 524.298828,372.951019 
	C525.294800,369.987335 522.624451,368.273163 520.768066,366.449188 
	C520.651550,366.334717 520.505859,366.250031 519.800537,365.728729 
M526.472046,419.006073 
	C520.477539,421.137604 513.902710,421.131348 507.677795,423.678253 
	C510.001617,427.016479 512.433228,426.004059 514.928162,424.950348 
	C518.565735,423.414062 521.958374,420.891968 526.022034,420.894531 
	C530.904602,420.897644 534.474670,417.543549 538.882568,416.395294 
	C535.011902,417.189026 531.141235,417.982727 526.472046,419.006073 
M573.452759,430.981781 
	C573.617615,429.595825 574.517883,428.115387 572.689575,426.692749 
	C569.592468,429.452057 568.885132,433.470337 567.566956,436.985748 
	C566.039307,441.059753 561.441956,442.273102 559.673706,445.980408 
	C563.768860,448.766724 563.038513,444.080231 564.624939,443.340149 
	C569.713501,440.966339 571.078796,436.097015 573.452759,430.981781 
M498.455597,309.878876 
	C499.394135,311.921234 500.026428,314.901794 502.838715,314.323730 
	C505.837738,313.707336 504.454834,310.514221 504.892670,308.431946 
	C505.055145,307.659149 504.898926,306.798981 504.785522,305.993073 
	C504.586090,304.575439 503.878693,303.516449 502.364807,303.288727 
	C500.687408,303.036438 499.371094,303.805206 498.816284,305.300018 
	C498.379639,306.476471 498.457977,307.844055 498.455597,309.878876 
M563.534546,428.099854 
	C564.693481,426.006897 566.362061,424.127228 566.225525,421.215271 
	C561.732117,427.881653 554.803589,430.211395 546.552124,432.156006 
	C553.841980,435.064545 558.438965,431.723419 563.534546,428.099854 
M580.706787,435.337616 
	C579.637268,433.158051 578.727722,434.318085 577.999634,435.543610 
	C576.321960,438.367462 574.734009,441.244537 573.042603,444.217865 
	C575.137085,445.153442 577.390259,445.385010 577.873657,443.325195 
	C578.496704,440.670502 580.600403,438.709778 580.706787,435.337616 
M473.547882,409.257660 
	C475.473480,407.968842 476.959595,409.127899 478.499603,410.118683 
	C481.463654,412.025635 484.697540,413.288269 488.464966,413.693573 
	C483.301483,410.964630 477.194885,409.585266 474.591736,403.178436 
	C472.883972,405.427399 470.939148,406.959595 473.547882,409.257660 
M474.656036,476.843323 
	C472.630127,476.493622 470.604218,476.143890 467.159180,475.549225 
	C474.443085,479.846619 481.097260,481.815063 487.733398,483.910126 
	C483.624542,481.597748 479.515656,479.285400 474.656036,476.843323 
M484.315796,418.240265 
	C479.831940,418.822479 476.993164,415.678436 473.586975,413.426147 
	C472.897705,414.661041 472.250244,415.820984 471.573456,417.033508 
	C476.017731,419.569641 480.628998,419.061340 485.019135,419.511230 
	C486.353058,419.647919 486.713287,418.536438 484.315796,418.240265 
M520.812622,357.948029 
	C520.749512,353.841034 518.734131,352.736603 514.360840,354.586487 
	C515.319214,357.480347 517.912842,357.535645 520.812622,357.948029 
M476.912537,448.017761 
	C476.698975,448.214539 475.656555,448.098511 476.635437,448.738770 
	C476.760620,448.820679 476.957092,448.798126 477.121460,448.814880 
	C479.422516,449.049744 481.719696,449.395660 484.026276,449.478180 
	C485.641418,449.535950 487.539032,449.545715 486.962402,446.242828 
	C483.783569,446.803894 480.626190,447.361206 476.912537,448.017761 
M504.731628,428.250092 
	C501.159607,426.423187 500.180817,428.004883 500.596375,431.834808 
	C502.175415,430.502411 505.268738,431.992004 504.731628,428.250092 
z"/>
<path fill="#000000" opacity="1.000000" stroke="none" 
	d="
M439.364258,722.862793 
	C433.240692,720.187744 428.791840,715.987305 424.412506,710.486511 
	C419.310669,722.442688 410.898499,730.190369 399.817871,735.128845 
	C397.377899,733.009155 398.130981,730.521606 398.129669,728.318665 
	C398.090210,662.383362 398.101532,596.448059 398.103516,530.512756 
	C398.103546,529.347046 398.062805,528.180847 398.083008,527.015625 
	C398.144623,523.460266 397.955322,520.074402 392.590027,519.299500 
	C403.719208,513.488403 414.553192,508.348145 425.146088,500.006531 
	C426.848907,528.969543 425.393555,556.631775 426.022888,584.756409 
	C427.134491,584.241699 427.783600,584.103577 428.211975,583.719360 
	C447.840820,566.115845 478.229370,570.945496 493.690399,595.121338 
	C500.478546,605.735718 504.170441,617.417358 505.864807,629.692932 
	C508.818909,651.094788 507.841309,672.253357 499.478607,692.505981 
	C492.527069,709.341064 481.735413,722.225586 462.668457,725.723816 
	C454.772888,727.172363 447.085236,726.283997 439.364258,722.862793 
M425.911865,612.500183 
	C425.928040,640.659729 426.179016,668.822083 425.834198,696.977234 
	C425.711884,706.962891 430.603455,713.456726 438.243835,718.256409 
	C448.788727,724.880859 460.018494,722.009583 466.881866,711.537476 
	C470.106750,706.616943 472.315643,701.236145 473.845032,695.578369 
	C480.144287,672.274719 481.061340,648.623657 478.202454,624.764343 
	C476.852264,613.496155 474.994019,602.270264 469.678070,592.083008 
	C461.114349,575.671692 443.539093,573.249817 430.373077,586.386108 
	C427.398651,589.353760 425.619354,592.607483 425.860931,597.007507 
	C426.125427,601.824890 425.915405,606.668274 425.911865,612.500183 
z"/>
<path fill="#000000" opacity="1.000000" stroke="none" 
	d="
M224.076141,749.036011 
	C202.924789,738.747437 182.602371,727.539917 160.816345,719.549683 
	C146.342010,714.241028 131.563065,710.676758 115.845947,713.227112 
	C104.199356,715.116943 97.389503,722.176331 98.197769,732.247009 
	C98.461868,735.537598 100.547264,737.955505 101.981232,740.819214 
	C94.113655,741.743225 88.463730,735.365662 90.077339,727.569336 
	C92.015945,718.202820 98.524734,712.696655 106.872055,709.156250 
	C120.757706,703.266785 134.925522,704.672302 149.041321,708.157410 
	C162.500839,711.480469 175.248611,716.871765 188.053696,722.072327 
	C194.458939,724.673706 194.840454,724.440430 194.843124,717.649231 
	C194.865906,659.663574 194.851562,601.677917 194.882034,543.692261 
	C194.890533,527.513184 203.289429,515.553528 217.780106,511.023895 
	C219.764053,510.403748 221.817459,509.488525 224.437546,510.341888 
	C220.184494,520.744568 222.162888,531.431213 222.134033,541.924133 
	C221.963150,604.074951 222.142197,666.226746 221.945282,728.377380 
	C221.927750,733.913635 223.447159,736.673767 228.782013,738.530640 
	C246.240005,744.607117 263.514954,751.335876 281.892975,754.097839 
	C296.356171,756.271423 310.758362,756.567871 324.314178,749.374268 
	C327.991821,747.422668 330.585297,744.017334 334.379059,742.152527 
	C336.132996,744.581787 334.742584,746.551636 333.930054,748.390137 
	C327.638824,762.625732 315.913452,769.308105 301.129333,771.220093 
	C285.821808,773.199707 271.402039,769.176453 257.273132,763.830139 
	C246.043488,759.580872 235.282425,754.270325 224.076141,749.036011 
z"/>
<path fill="#000000" opacity="1.000000" stroke="none" 
	d="
M822.702942,728.316589 
	C818.545166,724.354797 815.508728,720.012512 812.965576,715.282043 
	C810.509766,710.714111 809.333496,705.698669 807.767761,700.161072 
	C805.748169,703.657410 804.154663,706.700684 802.302002,709.576965 
	C789.973206,728.717590 761.994324,734.160950 743.723083,720.612732 
	C731.827332,711.791992 728.848877,699.004517 730.137085,685.016541 
	C731.713379,667.900574 741.305725,655.862000 755.345642,646.910217 
	C768.785767,638.340759 783.931030,633.467651 798.449524,627.247009 
	C809.652771,622.446716 807.547791,624.356873 807.655640,613.237671 
	C807.718384,606.762817 808.168396,600.262451 806.811340,593.817017 
	C804.619324,583.405823 798.091187,578.037109 787.492676,578.127686 
	C782.927979,578.166687 778.554749,579.073914 774.433960,581.017334 
	C765.269653,585.339172 761.174316,594.628540 764.104675,604.331909 
	C765.015747,607.348938 766.304749,610.246094 766.344727,613.503357 
	C766.428406,620.313049 763.282532,624.767151 756.985474,626.505127 
	C751.721741,627.957764 745.575317,625.208496 742.573669,620.058655 
	C737.857727,611.967712 739.378479,600.970459 746.480225,592.692627 
	C756.419067,581.107788 769.622253,576.246460 784.330688,574.861389 
	C792.166931,574.123596 799.957581,574.758789 807.519775,577.265869 
	C824.004211,582.731018 834.110962,596.526184 834.188721,614.288208 
	C834.308289,641.603516 834.270691,668.919800 834.192383,696.235413 
	C834.168701,704.500916 835.216064,712.542969 838.695862,720.067200 
	C844.168335,731.899841 853.127686,738.500916 866.627502,737.882019 
	C867.951599,737.821289 869.285217,737.899719 870.610107,737.982422 
	C870.876343,737.999146 871.123108,738.328308 871.376099,738.517212 
	C864.177490,746.252319 836.876404,740.634949 822.702942,728.316589 
M807.699768,641.511963 
	C807.495667,636.979858 808.184998,632.369934 807.056519,627.478394 
	C799.963074,629.895020 793.835083,632.834961 787.732605,635.855286 
	C775.611511,641.854614 766.580139,650.835999 761.443909,663.416199 
	C755.354309,678.331360 754.052246,693.472290 760.925659,708.484497 
	C766.315369,720.255981 778.289612,724.021667 789.223389,717.176758 
	C801.123535,709.726807 806.724487,697.986816 807.515381,684.476868 
	C808.331787,670.531494 807.697937,656.501221 807.699768,641.511963 
z"/>
<path fill="#000000" opacity="1.000000" stroke="none" 
	d="
M325.679138,721.417725 
	C319.320435,716.074707 316.890045,709.054626 315.118530,700.637329 
	C313.202637,703.977783 311.766327,706.645874 310.180084,709.221558 
	C298.056305,728.908020 268.891083,734.594055 250.458206,720.571167 
	C239.502548,712.236633 236.372391,700.237061 237.266602,687.199280 
	C238.817627,664.585632 252.904037,651.204285 272.125305,642.286621 
	C284.356201,636.612122 296.886414,631.563171 309.405762,626.541321 
	C313.437744,624.924072 315.071503,622.682983 314.775970,618.334412 
	C314.268982,610.874207 315.187775,603.371155 313.829315,595.905334 
	C311.788269,584.688171 304.637543,578.775269 293.220062,579.279236 
	C281.134430,579.812744 272.432770,586.549561 270.673950,596.750916 
	C269.901947,601.228455 271.661835,605.231140 272.956848,609.357910 
	C276.170715,619.599548 269.587860,628.335083 259.640564,627.185669 
	C253.243607,626.446472 248.450134,621.218933 247.701340,614.335083 
	C246.778824,605.854309 249.144485,598.411804 255.059891,592.343811 
	C267.842407,579.231506 283.894806,575.180847 301.617859,576.145996 
	C310.998138,576.656799 319.632446,579.417908 327.082275,585.274414 
	C337.347076,593.343811 341.074951,604.535522 341.175171,617.006409 
	C341.392151,644.003235 341.244263,671.002991 341.260712,698.001526 
	C341.262726,701.327759 341.360748,704.624268 341.947693,707.945068 
	C344.098969,720.117310 345.685791,721.621826 357.293488,721.619568 
	C353.692444,729.123596 337.192505,729.141235 325.679138,721.417725 
M264.134857,688.497559 
	C263.857178,694.908813 264.962860,701.097412 267.292633,707.052246 
	C272.285278,719.813110 285.652039,724.468811 297.130646,717.006165 
	C308.399261,709.680115 313.989594,698.493286 314.516815,685.448486 
	C315.208588,668.332703 314.718292,651.168091 314.667328,634.024719 
	C314.662170,632.289429 315.254547,630.350525 313.781403,628.840332 
	C286.040100,637.350037 264.910828,653.391724 264.134857,688.497559 
z"/>
<path fill="#000000" opacity="1.000000" stroke="none" 
	d="
M711.428345,670.102295 
	C711.731750,683.370544 711.028198,696.213135 714.111694,708.820496 
	C719.743286,731.846497 737.553223,746.237671 761.206787,746.813477 
	C762.867737,746.853943 764.936462,746.041077 766.080444,748.197571 
	C765.303528,750.031677 763.619690,749.857178 762.233459,749.883179 
	C736.908264,750.358582 715.046204,742.444702 698.405090,722.709900 
	C689.014526,711.573547 684.965759,698.257446 684.931702,683.854553 
	C684.813477,633.875977 684.893860,583.896912 684.895020,533.918030 
	C684.895081,531.252625 684.809265,528.586304 684.855957,525.922058 
	C684.923218,522.086792 683.883606,518.996643 679.339722,517.275879 
	C689.931152,511.942383 700.377502,506.608765 711.023865,500.410919 
	C710.704407,557.040100 712.932373,613.320190 711.428345,670.102295 
z"/>
<path fill="#000000" opacity="1.000000" stroke="none" 
	d="
M571.505493,653.630859 
	C564.390808,656.987549 557.636841,660.242188 550.793457,663.296509 
	C548.153564,664.474731 546.708496,666.052612 547.337463,669.039062 
	C551.245117,687.593506 558.126892,704.563660 574.354370,715.868408 
	C589.212524,726.219238 604.989990,726.742615 621.188171,718.842346 
	C623.191223,717.865479 624.943054,716.062378 627.842346,716.377991 
	C628.007996,719.182861 625.771851,720.029419 624.130249,721.062134 
	C590.003296,742.530762 544.669739,729.440063 527.449280,692.655029 
	C514.604553,665.216919 513.885254,636.873901 524.884766,608.702148 
	C532.665833,588.773315 547.250671,575.873779 569.003174,573.482117 
	C586.914062,571.512878 602.672058,576.972351 614.239258,591.574463 
	C626.291870,606.789307 622.685120,625.593811 605.943787,635.662231 
	C594.937439,642.281555 583.212402,647.539917 571.505493,653.630859 
M545.265869,641.520874 
	C545.475098,647.933716 544.557007,654.445679 546.968689,661.437683 
	C562.526062,654.116211 578.894226,648.626587 588.750366,633.465942 
	C597.349854,620.238342 599.238281,605.952271 593.702332,590.999390 
	C589.968323,580.913452 581.364929,575.516846 572.004761,577.380310 
	C564.544556,578.865479 559.868347,583.977844 556.451111,590.378296 
	C548.082764,606.052429 545.619873,623.063660 545.265869,641.520874 
z"/>
<path fill="#000000" opacity="1.000000" stroke="none" 
	d="
M630.979614,517.187988 
	C641.107910,511.393127 651.641724,506.862061 661.027649,500.206421 
	C663.688171,502.663788 663.023987,505.298492 663.025391,507.649780 
	C663.059448,565.788269 663.040833,623.926758 663.036804,682.065308 
	C663.036499,686.396423 662.994873,690.729736 663.110229,695.058289 
	C663.433411,707.189392 665.531250,718.415161 678.634460,724.313843 
	C673.437866,725.674744 668.339905,725.884583 663.295837,724.585022 
	C646.729309,720.316711 635.999878,705.793335 635.841919,686.703674 
	C635.600647,657.552979 635.736877,628.399048 635.725281,599.246521 
	C635.715820,575.591187 635.635437,551.935303 635.802917,528.281128 
	C635.835449,523.697693 635.318787,519.817200 630.979614,517.187988 
z"/>
<path fill="#000000" opacity="1.000000" stroke="none" 
	d="
M315.120331,382.048462 
	C313.176422,418.889008 320.190979,453.738617 332.601501,487.709869 
	C334.999420,494.273651 337.102509,500.952972 339.087982,507.654144 
	C339.599884,509.381866 341.045380,511.264893 339.171326,513.908813 
	C332.406921,504.870544 326.134033,495.414490 313.616089,493.389709 
	C316.311340,488.419800 320.452087,488.958130 324.893585,488.920349 
	C322.238922,480.211639 319.619202,472.015900 317.243927,463.749908 
	C310.353577,439.771271 306.171143,415.281525 306.992432,390.343140 
	C309.134125,325.309723 331.381592,268.781586 379.693268,223.821030 
	C391.088959,213.215790 404.106293,204.760727 417.599274,197.081818 
	C429.109802,190.531082 439.797455,183.383759 447.330231,171.858063 
	C453.982422,161.679642 466.109802,159.969849 477.032410,166.388412 
	C479.895111,168.070648 482.472198,170.231277 485.272980,172.028046 
	C491.859467,176.253479 494.033844,175.790680 498.403778,169.148727 
	C500.438049,170.527008 500.417969,172.343658 499.669403,174.263535 
	C498.624603,176.943314 496.602936,178.629913 493.787170,179.146698 
	C489.548798,179.924622 485.924713,178.220856 482.555511,175.932465 
	C478.796417,173.379227 474.807373,171.434021 470.368378,170.349747 
	C459.840546,167.778168 451.929871,172.721436 445.833405,180.144928 
	C437.743469,189.995819 427.874084,197.461029 417.367737,204.249390 
	C359.510162,241.632233 327.237213,295.291626 316.544159,362.643219 
	C315.556305,368.865448 315.577484,375.247894 315.120331,382.048462 
z"/>
<path fill="#000000" opacity="1.000000" stroke="none" 
	d="
M705.669434,384.121765 
	C704.003052,344.777802 693.154846,308.705902 673.396606,275.173218 
	C655.759216,245.239960 631.618652,221.862534 602.820068,202.864685 
	C593.922363,196.995056 585.874268,190.168274 579.201416,181.553329 
	C568.873169,168.218994 555.610168,166.364487 541.193359,175.262726 
	C537.917419,177.284637 534.734253,179.460098 530.643921,179.285690 
	C527.555908,179.154022 525.188965,177.748672 523.838379,174.970825 
	C522.852173,172.942474 522.490784,170.844620 524.717102,169.276505 
	C526.447144,169.281250 526.375122,170.815979 526.930237,171.708099 
	C528.898926,174.872177 531.548035,175.456650 534.600098,173.610062 
	C537.441101,171.891220 540.098572,169.868256 542.831482,167.971542 
	C555.034058,159.502640 568.854919,161.093994 577.185730,173.080765 
	C584.670532,183.850296 594.514832,191.419067 605.614563,197.683853 
	C650.935974,223.263535 680.527588,261.863556 698.582214,309.956085 
	C709.667664,339.484528 714.367249,370.125366 713.094666,401.602997 
	C712.017944,428.235260 706.269165,454.018738 697.770020,479.219849 
	C696.290894,483.605713 692.499451,485.267151 687.133423,487.693359 
	C699.023071,453.460327 706.824036,419.783020 705.669434,384.121765 
z"/>
<path fill="#000000" opacity="1.000000" stroke="none" 
	d="
M545.280151,246.553223 
	C546.285706,242.080383 547.240784,238.035309 548.054993,233.962082 
	C548.668823,230.891113 550.221863,229.512268 553.537476,229.547073 
	C560.353027,229.618607 567.175842,229.395416 573.989136,229.128143 
	C577.363220,228.995804 579.237427,230.214279 579.855225,233.670624 
	C581.111206,240.698029 582.818726,247.650421 583.909058,254.700409 
	C585.614380,265.726715 581.435181,273.872772 571.428345,278.895020 
	C568.018921,280.606110 566.973022,283.066681 566.973389,286.464752 
	C566.974060,292.622620 567.143127,298.786987 566.912354,304.936279 
	C566.738525,309.568176 568.102783,312.680115 573.036621,313.574982 
	C574.292969,313.802887 575.645447,314.274353 576.096313,315.792755 
	C573.062317,317.772736 556.697937,317.978882 552.333374,316.074768 
	C552.660461,313.730011 554.782715,313.505127 556.368042,313.019958 
	C559.839478,311.957581 560.985046,309.695923 560.924011,306.264435 
	C560.805420,299.609070 560.852661,292.950134 560.888184,286.292969 
	C560.905579,283.040192 559.873108,280.724121 556.735962,279.051575 
	C546.341675,273.509857 542.425537,265.135773 544.296387,253.388718 
	C544.635986,251.256531 544.880615,249.109207 545.280151,246.553223 
z"/>
<path fill="#000000" opacity="1.000000" stroke="none" 
	d="
M906.115967,704.655762 
	C916.155640,708.604858 924.411011,714.197205 930.076355,723.205933 
	C939.594421,738.340820 934.665527,757.211548 918.998108,765.006775 
	C917.154602,765.923889 915.283264,767.254761 913.098328,766.539795 
	C912.370911,765.517700 912.811462,764.803528 913.330811,764.138733 
	C926.299072,747.539734 918.946655,722.504333 899.425659,711.779480 
	C887.178528,705.050964 874.101868,704.237732 860.620361,705.772644 
	C858.899414,705.968567 857.125549,706.864136 855.470459,705.424561 
	C862.431946,699.457458 889.905701,699.010803 906.115967,704.655762 
z"/>
<path fill="#000000" opacity="1.000000" stroke="none" 
	d="
M571.948853,482.785706 
	C598.847595,476.247437 625.448181,475.849274 652.347961,481.471558 
	C586.928223,479.584930 528.000122,498.250427 474.835449,537.232727 
	C477.839813,523.396362 534.467957,492.084686 571.948853,482.785706 
z"/>
<path fill="#000000" opacity="1.000000" stroke="none" 
	d="
M464.798553,255.622040 
	C465.108063,246.135132 463.964172,236.956573 466.365051,226.857224 
	C470.404266,230.690765 469.585693,234.321655 469.908936,237.360886 
	C470.751984,245.288208 470.817230,253.294754 471.403839,261.254150 
	C471.757385,266.051025 470.129700,269.784424 466.160919,272.358276 
	C463.004822,274.405090 461.857056,277.229218 461.962921,280.828094 
	C462.217255,289.475769 461.833252,298.141388 462.892700,306.767853 
	C463.174377,309.061371 463.132660,311.434082 462.912811,313.739288 
	C462.664703,316.340576 461.198212,318.203613 458.377411,318.052795 
	C455.705200,317.909943 454.730194,315.909973 454.771881,313.512543 
	C454.850006,309.021454 454.899963,304.516083 455.305145,300.047760 
	C455.892853,293.566742 456.001526,287.090515 455.880737,280.595459 
	C455.814026,277.008545 454.554779,274.201385 451.404053,272.219177 
	C448.398132,270.328094 446.800842,267.495453 446.706818,263.877441 
	C446.420532,252.864990 447.627380,241.942184 448.670380,231.009811 
	C448.783112,229.828247 449.029083,228.676834 450.642517,228.141617 
	C453.405090,229.364624 452.984680,232.089798 453.025421,234.413498 
	C453.150970,241.571640 453.063293,248.733261 453.126648,255.892929 
	C453.141846,257.612732 452.716370,259.502472 455.249573,262.318268 
	C455.973724,250.036011 456.619690,239.079620 457.283997,227.812180 
	C461.344452,228.823090 460.982025,231.275925 461.037628,233.271286 
	C461.232330,240.261581 461.245697,247.256744 461.377167,254.249130 
	C461.422485,256.659454 461.422211,259.125305 463.113281,261.229065 
	C465.481750,259.779816 464.500946,257.747498 464.798553,255.622040 
z"/>
<path fill="#000000" opacity="1.000000" stroke="none" 
	d="
M493.263855,157.490295 
	C490.231506,156.906525 487.644348,157.166504 486.602356,160.001831 
	C485.156067,163.937332 482.261536,164.035553 479.376984,162.694138 
	C476.136230,161.187073 474.371094,158.311081 475.294922,154.497360 
	C476.439117,149.773911 481.997742,146.885681 487.788025,148.089035 
	C495.583832,149.709183 500.396118,155.078354 504.222046,161.580948 
	C505.390778,163.567368 506.477509,165.602005 507.772400,167.919922 
	C509.557220,165.605072 508.854126,162.379349 511.309448,160.813858 
	C513.898193,162.083038 512.902466,165.194000 514.936523,166.965607 
	C517.080078,166.066925 517.287659,163.693726 518.268616,161.948563 
	C521.876038,155.530563 526.353210,150.146500 533.898010,148.233124 
	C537.869263,147.226013 541.540894,148.055481 544.740845,150.446243 
	C547.374268,152.413742 548.349121,155.268173 547.265015,158.431183 
	C546.279358,161.306824 544.182190,163.102432 541.008118,163.387634 
	C538.671021,163.597656 536.972534,163.115601 535.834167,160.615540 
	C533.858887,156.277328 530.573608,155.738678 526.753296,158.982285 
	C521.600037,163.357605 519.087646,169.322128 517.267273,175.628494 
	C516.437988,178.501358 515.842163,181.445297 514.926514,184.288116 
	C514.418762,185.864594 513.516479,187.513153 511.513428,187.441315 
	C509.402954,187.365601 508.294373,185.828918 507.784821,183.951080 
	C507.001648,181.065125 506.429871,178.121201 505.626831,175.241364 
	C503.614258,168.023834 500.422729,161.577301 493.263855,157.490295 
z"/>
<path fill="#000000" opacity="1.000000" stroke="none" 
	d="
M360.434082,827.913452 
	C360.867981,829.530457 362.473877,830.206909 361.983582,832.159302 
	C358.143097,833.409241 354.234558,833.459778 350.869049,832.233032 
	C352.516144,818.483826 352.372223,805.265930 350.956635,791.047668 
	C359.050110,791.151184 367.958679,788.928833 376.279877,793.496216 
	C382.272125,796.785339 383.190613,805.149963 378.434479,810.325195 
	C377.000336,811.885742 375.229492,813.136902 373.241669,814.849670 
	C377.077545,820.451355 379.680237,826.761597 385.239166,831.165955 
	C379.750092,834.315735 375.569641,833.549316 372.511780,828.973328 
	C370.111298,825.381165 367.950104,821.629761 365.644257,817.973328 
	C364.739136,816.537964 363.668152,815.029663 361.689148,815.677307 
	C359.820618,816.288940 360.301270,818.133606 360.270264,819.549866 
	C360.212097,822.207947 360.314911,824.869568 360.434082,827.913452 
M360.263489,807.072083 
	C361.329407,811.002747 365.178467,811.918945 369.411163,809.231873 
	C372.944397,806.988892 373.542419,803.659790 372.150970,800.113342 
	C370.578247,796.104797 366.900787,795.202698 363.091858,795.562866 
	C358.499054,795.997314 360.740875,799.822021 360.265656,802.231018 
	C360.014374,803.505066 360.236542,804.872498 360.263489,807.072083 
z"/>
<path fill="#000000" opacity="1.000000" stroke="none" 
	d="
M630.694885,804.100708 
	C630.502625,799.708008 631.697449,795.572327 628.537048,791.639954 
	C637.690857,791.256653 646.790527,788.634949 655.160767,793.660522 
	C661.532654,797.486145 661.690918,806.905762 655.852600,811.675049 
	C654.711304,812.607361 653.409363,813.343140 651.657104,814.522644 
	C655.588867,820.341309 658.483826,826.617310 664.066895,831.203491 
	C658.178284,834.266846 654.263733,833.449463 651.252258,828.801819 
	C648.899902,825.171448 646.671265,821.461121 644.357483,817.805420 
	C643.548218,816.526855 642.669373,815.179138 640.835632,815.612488 
	C638.895325,816.071106 638.989380,817.752380 638.955688,819.230103 
	C638.858215,823.492554 638.375732,827.815247 641.084167,831.957458 
	C636.643860,833.399597 632.700378,833.464539 628.635925,832.137634 
	C632.486633,823.003845 629.967651,813.677795 630.694885,804.100708 
M650.453735,806.902893 
	C650.707520,806.293030 651.013062,805.699097 651.206421,805.070679 
	C652.135437,802.051208 651.289795,799.374756 648.953552,797.487061 
	C646.548096,795.543213 643.473450,794.644897 640.563110,795.946655 
	C637.615784,797.265015 639.350464,800.333130 638.945068,802.606079 
	C638.773682,803.567017 638.920898,804.583923 638.914734,805.575317 
	C638.883606,810.597595 640.115601,811.621155 645.091003,810.553772 
	C647.065247,810.130188 648.831726,809.250061 650.453735,806.902893 
z"/>
<path fill="#000000" opacity="1.000000" stroke="none" 
	d="
M566.368286,821.325195 
	C559.424133,806.049622 570.466187,791.269592 583.874634,790.659790 
	C596.036926,790.106628 604.658142,796.271851 606.936340,807.342834 
	C609.122009,817.964172 603.699768,827.988892 593.687012,831.838379 
	C583.066772,835.921326 572.355530,831.906494 566.368286,821.325195 
M592.635315,797.741211 
	C583.750671,792.567139 575.435791,796.124817 573.448853,806.012756 
	C572.688904,809.794678 572.715149,813.650085 573.512573,817.405273 
	C574.886169,823.873474 580.781372,828.887817 586.389709,828.631653 
	C592.284790,828.362427 597.612610,823.353943 598.491577,816.629333 
	C599.380066,809.831604 598.522583,803.333496 592.635315,797.741211 
z"/>
<path fill="#000000" opacity="1.000000" stroke="none" 
	d="
M409.542847,832.945068 
	C406.876434,832.797546 404.465057,833.569275 402.403198,831.939941 
	C408.895660,819.950256 412.888397,806.971252 418.276367,794.584229 
	C418.998932,792.923035 419.581329,791.020447 421.870758,790.922607 
	C424.501312,790.810303 425.067627,792.977112 425.804169,794.780334 
	C428.696960,801.862793 431.494537,808.984009 434.367126,816.074829 
	C436.525085,821.401611 437.887421,827.109436 442.522186,831.983398 
	C437.511444,833.482483 433.227081,833.258911 429.230103,832.452698 
	C428.038208,830.997559 429.045868,830.253357 429.287415,829.354370 
	C430.427429,825.111694 428.315552,822.198853 423.929413,821.991882 
	C421.604553,821.882141 419.264130,821.860840 416.941711,821.992737 
	C412.480377,822.246338 410.254364,825.204407 411.918732,829.411377 
	C412.961731,832.047729 412.310883,832.700073 409.542847,832.945068 
M424.800934,816.219910 
	C424.902008,811.768799 422.508087,808.257874 420.449432,803.821655 
	C418.657959,808.376709 415.973419,811.811096 416.054016,816.338684 
	C418.967041,817.112610 421.585022,816.913025 424.800934,816.219910 
z"/>
<path fill="#000000" opacity="1.000000" stroke="none" 
	d="
M727.007324,804.080627 
	C728.448914,800.477722 729.725464,797.221252 731.052551,793.985474 
	C731.693115,792.423767 732.397644,790.893860 734.483459,790.855286 
	C736.607788,790.816040 737.289673,792.369507 737.919373,793.931946 
	C741.529297,802.889038 745.128540,811.850464 748.699585,820.823120 
	C750.162170,824.498047 751.238586,828.351318 754.602661,831.783447 
	C749.839355,833.634338 745.730591,833.075378 741.914917,832.503845 
	C740.695251,831.085938 741.671448,830.314697 741.922791,829.412781 
	C743.100952,825.185181 741.032043,822.289490 736.649719,822.002319 
	C735.154785,821.904358 733.652039,821.909363 732.152649,821.899353 
	C724.264954,821.846680 722.304871,824.387573 724.578857,832.068481 
	C721.094727,833.268738 717.727173,833.758423 714.272827,831.656860 
	C720.528809,823.307007 722.537598,813.339172 727.007324,804.080627 
M736.303101,811.137695 
	C735.312927,808.764221 734.322754,806.390808 733.013977,803.253784 
	C730.898315,808.047241 729.095398,811.889221 728.083618,816.518127 
	C731.317078,816.887634 734.189941,817.304321 736.963074,816.268494 
	C738.045105,814.560181 736.882690,813.251709 736.303101,811.137695 
z"/>
<path fill="#000000" opacity="1.000000" stroke="none" 
	d="
M516.557983,543.585815 
	C513.838745,545.055725 511.758087,547.043945 508.632111,547.776428 
	C516.018005,527.935913 592.228821,499.684753 619.016968,507.113678 
	C582.526733,512.472717 548.555481,524.784241 516.557983,543.585815 
z"/>
<path fill="#000000" opacity="1.000000" stroke="none" 
	d="
M472.483093,832.970215 
	C470.778900,832.789795 469.355896,832.950073 468.440857,831.196655 
	C471.102936,828.774963 470.755188,825.424744 470.734924,822.117798 
	C470.693115,815.301025 470.782104,808.482971 470.684204,801.667358 
	C470.655243,799.649292 471.603241,797.081543 468.898590,795.972717 
	C466.191406,794.863098 463.705231,795.607483 461.483002,797.444641 
	C460.644196,798.138062 460.319092,799.559631 458.845215,799.392761 
	C456.218323,792.828247 457.410431,790.788696 463.941772,790.764343 
	C471.091156,790.737610 478.240845,790.742126 485.390228,790.774841 
	C492.135834,790.805664 493.178284,792.457703 490.917603,799.406982 
	C490.606476,799.429565 490.151855,799.587585 490.004791,799.439758 
	C487.479065,796.900146 484.704437,794.159424 480.922424,795.900879 
	C477.186523,797.621094 479.305481,801.500549 479.153717,804.367371 
	C478.837677,810.336243 479.032532,816.333557 479.066467,822.318970 
	C479.084259,825.454102 478.566772,828.709167 481.239319,831.232422 
	C478.533356,833.905579 475.553345,832.606201 472.483093,832.970215 
z"/>
<path fill="#000000" opacity="1.000000" stroke="none" 
	d="
M307.920410,808.029114 
	C307.920837,805.535950 308.003693,803.531677 307.895203,801.537903 
	C307.783325,799.481873 308.583649,796.945251 305.843323,795.933044 
	C303.122559,794.927917 300.594635,795.357605 298.531952,797.583557 
	C297.870056,798.297913 297.379883,799.259827 296.211609,799.289673 
	C293.230347,793.520996 294.643097,790.810974 300.706024,790.783508 
	C308.037903,790.750305 315.370056,790.769958 322.702057,790.791626 
	C329.512360,790.811707 330.475281,792.290894 328.315002,799.355835 
	C328.009583,799.393616 327.526672,799.583618 327.406372,799.449158 
	C324.845825,796.587646 321.829590,794.001831 317.927887,795.899353 
	C314.546417,797.543823 316.462402,801.294373 316.337067,804.062317 
	C316.058411,810.215454 316.249603,816.389587 316.233582,822.555115 
	C316.225433,825.701782 315.884094,828.916870 318.967346,831.667786 
	C314.468048,833.717468 310.527771,833.185852 306.171204,832.227966 
	C309.424255,824.329407 307.363464,816.350403 307.920410,808.029114 
z"/>
<path fill="#000000" opacity="1.000000" stroke="none" 
	d="
M523.931885,796.327393 
	C519.184753,794.132507 516.064087,796.453979 513.310608,799.684998 
	C509.812439,793.787659 511.334198,790.839783 517.641479,790.799500 
	C524.453674,790.755981 531.266418,790.761292 538.078796,790.774658 
	C545.809082,790.789856 546.199341,791.295105 544.747009,799.164429 
	C544.431396,799.220215 543.953247,799.431763 543.822754,799.299744 
	C541.154785,796.599792 538.092468,794.114807 534.233337,795.908752 
	C530.532593,797.629211 532.617676,801.516907 532.450439,804.395935 
	C532.132874,809.860596 532.350830,815.357117 532.368958,820.840271 
	C532.381409,824.601379 531.802185,828.490356 535.310242,831.971008 
	C530.525085,833.431458 526.473267,833.496338 522.903625,832.352173 
	C526.044495,820.183777 524.531555,808.370361 523.931885,796.327393 
z"/>
<path fill="#000000" opacity="1.000000" stroke="none" 
	d="
M549.262817,869.894226 
	C543.812012,868.045227 538.711426,866.625916 533.253723,867.294495 
	C528.182495,867.915710 524.458435,870.909302 523.527344,875.273743 
	C522.644714,879.410950 525.926941,883.664612 529.936157,883.615295 
	C531.378235,883.597534 532.575745,883.116333 533.280823,881.841309 
	C534.023499,880.498169 533.204224,879.727051 532.126953,879.016113 
	C530.473267,877.924561 530.043457,876.361206 531.156616,874.723572 
	C532.430603,872.849182 534.382324,872.476624 536.483154,873.072449 
	C541.281494,874.433289 542.358337,881.044006 538.240051,884.918823 
	C535.015137,887.953003 531.178650,889.188416 526.753601,887.486450 
	C522.136536,885.710693 520.072937,882.131165 519.846863,877.461792 
	C519.470032,869.677979 526.340149,863.401123 535.678528,862.758057 
	C539.043823,862.526428 542.330627,863.093689 545.571960,863.818970 
	C557.247864,866.431580 568.911377,871.537292 580.837585,862.507751 
	C579.090149,869.178833 573.601135,872.921814 566.703308,873.295959 
	C560.726379,873.620117 555.250549,871.537231 549.262817,869.894226 
z"/>
<path fill="#000000" opacity="1.000000" stroke="none" 
	d="
M505.204926,874.434082 
	C505.328461,885.395020 498.185455,891.099365 489.994904,886.934937 
	C486.242706,885.027222 484.246979,881.857727 484.955231,877.541138 
	C485.409454,874.773132 487.403168,873.255127 490.123596,872.856628 
	C492.253632,872.544739 494.205627,873.058289 495.100525,875.239441 
	C496.473267,878.585144 492.243195,878.327698 491.499115,880.673584 
	C492.194153,883.050781 494.137817,883.845703 496.407745,883.397644 
	C499.003906,882.885254 500.847107,881.160034 501.572693,878.516785 
	C502.709442,874.375977 500.603363,870.377930 496.169952,868.496155 
	C491.868591,866.670471 487.387878,866.729309 482.957642,867.922852 
	C477.183228,869.478577 471.529968,871.562195 465.691437,872.780884 
	C459.135925,874.149109 452.702179,873.641174 447.633057,868.382141 
	C446.403870,867.106873 444.899109,865.890503 445.079987,863.826782 
	C445.853912,862.927490 446.649109,863.301086 447.313171,863.774170 
	C454.503754,868.896667 462.304932,868.344910 470.287140,866.329773 
	C474.797455,865.191101 479.274506,863.820312 483.850800,863.063843 
	C494.297699,861.336914 502.163391,865.514465 505.204926,874.434082 
z"/>
<path fill="#000000" opacity="1.000000" stroke="none" 
	d="
M808.093323,808.777222 
	C837.700562,809.684998 866.858154,809.508545 896.240906,811.028625 
	C895.263245,813.984436 893.295532,813.185852 891.849426,813.214966 
	C871.574097,813.623291 851.296570,813.921448 831.021118,814.324524 
	C822.881958,814.486206 814.747314,814.861877 806.608948,815.081177 
	C805.125122,815.121094 803.595215,815.044983 802.155457,814.718628 
	C800.441956,814.330261 799.858398,812.945557 799.988342,811.273071 
	C800.112854,809.669556 801.107605,808.920044 802.622864,808.852112 
	C804.282288,808.777649 805.945984,808.796082 808.093323,808.777222 
z"/>
<path fill="#000000" opacity="1.000000" stroke="none" 
	d="
M693.927246,805.179504 
	C694.522400,814.320374 692.620117,823.150208 695.415771,832.066833 
	C691.776367,833.725891 687.873596,833.046326 684.586975,832.469971 
	C686.205505,818.502869 686.469788,805.211975 684.361694,791.340698 
	C687.732361,790.360046 691.608276,790.413940 696.174438,791.605042 
	C692.537720,795.809021 694.040466,800.355774 693.927246,805.179504 
z"/>
<path fill="#000000" opacity="1.000000" stroke="none" 
	d="
M187.111542,814.031982 
	C179.993774,813.633301 173.360077,813.249084 166.729889,812.811584 
	C166.114716,812.770935 165.521851,812.392273 163.994431,811.831055 
	C167.815170,810.360413 171.019638,810.219543 174.141861,810.112305 
	C181.454163,809.861023 188.775253,809.877075 196.091843,809.735779 
	C210.883575,809.450012 225.674347,809.112122 240.466446,808.847717 
	C242.716156,808.807495 245.574692,808.295776 245.586990,811.862854 
	C245.599228,815.406799 242.650848,815.022156 240.462448,814.990417 
	C222.839554,814.735046 205.218307,814.366089 187.111542,814.031982 
z"/>
<path fill="#000000" opacity="1.000000" stroke="none" 
	d="
M511.448242,907.445435 
	C507.422577,902.762695 506.003082,897.753113 507.383514,891.952576 
	C508.380493,887.763184 509.037781,883.493896 509.915009,879.274536 
	C510.246857,877.678162 510.493195,875.960510 512.165161,875.183350 
	C513.528870,874.974609 514.233337,875.791077 514.466064,876.751099 
	C516.140808,883.658264 518.768494,890.462463 518.142395,897.698975 
	C517.778931,901.900574 517.090454,906.388062 511.448242,907.445435 
z"/>
<path fill="#000000" opacity="1.000000" stroke="none" 
	d="
M514.048096,143.409760 
	C510.921783,139.770782 509.800354,139.976212 508.199432,143.776001 
	C506.875183,146.919006 507.862885,150.288513 507.154877,153.664932 
	C501.012054,147.438263 502.761261,132.013824 509.756592,127.822968 
	C511.936584,126.516975 513.144165,127.739571 514.431213,129.113159 
	C520.180908,135.249130 520.898315,146.134781 515.757996,153.917496 
	C513.861267,150.539383 515.506836,146.870895 514.048096,143.409760 
z"/>
<path fill="#000000" opacity="1.000000" stroke="none" 
	d="
M515.136475,198.654022 
	C513.009338,202.464508 513.522095,206.400436 512.852478,210.118805 
	C512.213745,213.665527 513.015137,217.388504 511.638275,220.924896 
	C509.011383,220.269547 509.875092,218.260864 509.770447,216.833267 
	C509.277313,210.105545 509.827454,203.243896 506.154846,197.039871 
	C505.080780,195.225449 505.669189,193.123367 507.456665,191.679337 
	C509.388214,190.118958 511.525970,189.332047 513.886597,190.618958 
	C516.032104,191.788574 516.010010,193.754105 515.534973,195.837738 
	C515.352051,196.640366 515.335083,197.480865 515.136475,198.654022 
z"/>
<path fill="#000000" opacity="1.000000" stroke="none" 
	d="
M779.406372,810.586670 
	C786.638367,803.226501 786.640015,803.224976 793.483032,810.731323 
	C793.697205,810.966248 793.799255,811.303345 793.984192,811.650146 
	C793.764465,813.876343 791.706238,814.726562 790.409119,816.133850 
	C789.201782,817.443665 788.393250,819.205444 785.895325,820.096619 
	C783.958984,816.949890 779.741211,815.412720 779.406372,810.586670 
z"/>
<path fill="#000000" opacity="1.000000" stroke="none" 
	d="
M255.766068,816.218140 
	C254.410919,814.582581 252.501312,813.872803 252.023819,811.573364 
	C253.856400,809.506958 255.800461,807.318848 257.739807,805.126648 
	C259.266418,803.401001 260.539581,803.972534 261.796661,805.500244 
	C263.465698,807.528625 265.194580,809.507751 267.109741,811.757019 
	C265.271332,814.989197 262.549591,817.450562 259.909271,819.810547 
	C257.834137,819.272339 257.192017,817.576904 255.766068,816.218140 
z"/>
<path fill="#000000" opacity="1.000000" stroke="none" 
	d="
M509.705322,870.064941 
	C507.579559,867.503174 507.526764,865.276001 509.859283,863.283691 
	C511.621826,861.778076 513.570923,861.822083 515.260986,863.335083 
	C517.045349,864.932312 517.626709,866.963074 516.213379,869.114258 
	C514.583740,871.594727 512.493591,872.283691 509.705322,870.064941 
z"/>
</svg>