<svg width="411" height="379" viewBox="0 0 411 379" fill="none" xmlns="http://www.w3.org/2000/svg">
<path d="M226.273 166.418C204.177 172.665 185.002 183.806 167.779 198.647C170.73 193.091 175.558 189.258 179.853 184.985C179.407 183.589 178.202 183.357 177.207 182.948C162.419 176.855 147.028 174.118 131.044 174.782C129.514 174.846 127.976 174.998 126.471 175.272C124.703 175.593 123.854 174.806 123.137 173.282C119.001 164.502 116.547 155.227 115.053 145.694C112.283 128.032 113.9 110.714 119.88 93.8841C128.468 69.7156 143.742 51.1756 166.658 39.2302C172.953 35.9491 179.536 33.612 186.712 33.2791C187.918 33.2231 187.971 33.1967 189.539 33.843C188.653 34.7426 187.513 34.7973 186.49 35.0801C170.168 39.5957 155.769 47.5318 144.064 59.8287C130.016 74.5868 121.723 92.2939 118.136 112.313C114.953 130.082 117.179 147.369 122.27 164.462C122.816 166.296 123.708 166.919 125.648 166.408C128.3 165.709 131.019 165.256 133.72 164.758C135.131 164.498 135.853 163.782 135.852 162.308C135.848 157.213 135.876 152.118 135.887 147.023C135.888 146.361 135.802 145.699 135.221 145.277C131.538 142.598 130.925 138.51 130.634 134.488C130.291 129.743 130.752 125.019 131.718 120.3C132.474 116.609 131.69 112.709 132.456 108.962C134.007 101.378 134.002 93.554 136.005 86.0443C136.305 84.9213 136.381 83.6273 137.52 82.89C138.798 83.2294 138.834 84.307 139.057 85.1936C140.339 90.296 141.038 95.4856 141.537 100.723C141.865 104.16 142.774 107.526 143.034 110.996C143.527 117.58 144.248 124.149 144.699 130.736C144.949 134.382 144.519 138.005 143.033 141.415C142.712 142.153 142.46 143.115 141.867 143.505C138.956 145.421 139.399 148.287 139.449 151.094C139.501 154.086 139.454 157.08 139.512 160.071C139.578 163.466 139.996 163.935 143.335 163.774C152.597 163.327 161.744 164.317 170.847 165.855C172.668 166.163 174.433 166.8 176.221 167.296C176.955 167.5 177.676 167.861 179.106 167.277C176.926 166.677 175.331 166.22 173.727 165.799C168.601 164.455 164.961 161.222 162.415 156.712C161.929 155.851 161.236 155.681 160.522 155.407C158.857 154.767 157.197 154.134 155.821 152.951C152.881 150.424 153.131 147.137 156.492 145.231C160.054 143.212 163.99 142.224 167.978 141.538C169.898 141.207 171.422 140.832 172.298 138.738C173.103 136.813 175.114 135.896 176.932 135.004C177.952 134.504 178.593 133.903 178.831 132.729C179.547 129.186 181.838 126.838 185.041 125.478C186.931 124.676 187.656 123.513 187.386 121.562C187.1 119.504 187.958 118.995 189.918 119.516C192.729 120.264 195.569 120.636 198.411 119.416C199.396 118.994 200.58 118.868 200.444 117.467C200.283 115.814 201.346 113.817 199.264 112.646C198.278 112.092 197.205 111.686 196.25 111.086C194.572 110.032 193.907 108.706 193.962 106.476C194.018 104.197 194.195 101.824 194.431 99.6404C194.668 97.448 194.107 95.0132 195.317 92.915C195.811 92.0587 195.495 91.2119 195.261 90.3382C194.405 87.1437 195.089 84.3984 197.832 82.3681C198.949 81.5408 199.45 80.5419 199.592 79.1222C200.283 72.2037 200.757 65.2758 200.935 58.325C200.965 57.1843 200.648 55.8494 202.271 54.9602C203.881 56.9727 202.855 59.2785 203.006 61.3676C203.163 63.5251 203.041 65.7029 203.277 67.8816C204.931 63.053 203.411 57.7948 205.498 52.9843C207.177 58.417 205.782 64.0807 207.157 69.8746C207.601 64.781 208.011 60.0527 207.976 55.2915C207.966 53.817 207.465 51.3868 209.064 51.3205C211.078 51.237 210.259 53.6689 210.344 55.0355C210.783 62.055 210.902 69.0854 210.96 76.1189C210.984 78.9777 210.165 81.3043 208.014 83.2319C204.699 86.204 205.495 90.1494 205.726 93.9074C205.781 94.8095 206.792 95.0255 207.499 95.3987C208.853 96.1141 210.289 96.718 211.53 97.5955C213.01 98.6423 214.051 100.007 212.611 101.868C212.203 102.395 212.151 102.886 212.536 103.409C213.913 105.28 213.111 106.543 211.337 107.49C213.901 110.507 213.901 110.682 211.172 113.458C213.339 115.182 214.525 117.469 214.676 120.268C214.731 121.276 215.517 121.781 216.36 122.161C218.223 123 220.168 123.49 222.22 123.484C223.532 123.48 224.554 123.774 224.13 125.422C223.792 126.737 224.651 127.341 225.504 127.981C227.245 129.286 228.599 130.864 228.805 133.127C228.907 134.243 229.68 134.546 230.503 134.929C232.628 135.918 234.377 137.245 234.888 139.746C235.157 141.061 236.122 141.455 237.414 141.511C241.922 141.708 246.171 143.01 250.198 144.955C254.403 146.985 254.631 150.725 250.777 153.446C249.796 154.138 248.69 154.693 247.573 155.138C246.307 155.642 244.974 155.969 244.38 157.642C243.134 156.607 241.978 156.81 240.691 157.172C236.716 158.291 232.615 158.744 228.524 159.23C227.719 159.325 226.469 158.78 226.56 160.505C226.594 161.159 225.722 161.087 225.194 161.24C217.419 163.495 209.861 166.288 202.545 169.798C200.217 170.915 198.052 172.135 196.063 173.793C197.207 173.985 198.107 173.41 199.034 172.931C217.824 163.217 237.808 158.312 258.948 158.133C261.369 158.112 263.792 158.357 266.213 158.5C267.956 158.603 268.792 157.716 268.812 156.06C268.849 152.988 268.823 149.914 268.812 146.841C268.81 146.262 268.691 145.684 268.234 145.293C263.695 141.411 263.46 136.034 263.683 130.794C264.029 122.672 264.483 114.507 265.704 106.484C266.734 99.7221 267.108 92.8413 268.866 86.1931C269.2 84.9327 269.035 82.9157 270.643 82.8979C272.142 82.8813 271.96 84.8599 272.218 86.0447C273.315 91.0908 273.674 96.3078 274.707 101.299C276.484 109.89 276.004 118.631 277.548 127.194C278.284 131.277 277.929 135.416 276.804 139.447C276.344 141.098 275.88 142.919 274.502 143.902C272.442 145.373 272.319 147.278 272.392 149.438C272.474 151.863 272.501 154.291 272.451 156.716C272.415 158.483 273.266 159.401 274.9 159.791C277.885 160.505 280.893 161.149 283.835 162.012C285.418 162.477 286.037 161.919 286.499 160.53C288.6 154.217 289.889 147.724 290.635 141.138C292.66 123.274 290.365 105.942 283.382 89.3743C271.631 61.4919 251.401 43.0179 222.024 34.9151C221.238 34.6982 220.271 34.7335 219.678 33.7187C220.699 32.9363 221.75 33.2976 222.739 33.3324C232.392 33.6715 240.648 37.8724 248.598 42.8149C269.821 56.0086 282.968 75.2422 289.906 98.9075C295.828 119.108 296 139.382 289.503 159.537C288.59 162.372 287.253 165.072 286.07 167.816C285.869 168.283 285.71 168.939 284.913 168.881C284.23 168.112 284.753 167.289 284.999 166.638C285.808 164.491 284.857 163.589 282.886 163.329C273.507 162.089 264.121 161.312 254.629 161.858C245.07 162.408 235.68 163.793 226.273 166.418ZM222.222 153.636C223.068 153.172 224.19 153.088 224.823 151.76C221.631 151.063 218.664 150.415 215.697 149.767C216.916 150.985 218.279 151.548 219.827 151.819C220.74 151.978 222.364 151.883 221.563 153.83C219.943 154.28 218.29 154.662 216.931 156.049C218.378 156.049 219.639 156.049 221.02 156.049C221.086 155.142 221.158 154.28 222.222 153.636ZM176.277 146.515C176.243 144.63 175.742 142.888 174.644 140.778C174.061 143.513 175.551 145.117 176.288 147.319C176.139 149.347 177.379 150.4 179.015 151.13C181.844 152.394 184.835 152.654 187.915 152.487C183.46 151.803 179.292 150.576 176.277 146.515ZM180.16 180.621C182.635 182.539 184.897 181.957 187.085 180.076C187.632 179.606 188.302 179.282 188.889 178.856C190.8 177.469 190.761 176.568 188.621 175.664C178.22 171.271 167.398 168.439 156.146 167.5C147.049 166.74 137.947 166.745 128.846 167.875C123.36 168.556 123.291 168.418 125.073 173.575C125.122 173.718 125.253 173.833 125.573 174.276C144.266 169.807 162.372 172.444 180.16 180.621ZM166.086 147.321C166.673 146.548 167.26 145.775 167.968 144.843C164.662 145 161.776 145.646 159.162 147.169C157.113 148.363 157.119 149.473 159.214 150.641C161.23 151.765 163.341 152.746 166.054 152.595C165.272 150.858 165.122 149.232 166.086 147.321ZM246.14 151.545C246.721 151.265 247.334 151.036 247.876 150.693C248.597 150.237 249.653 149.945 249.542 148.844C249.441 147.838 248.519 147.418 247.695 147.114C245.881 146.447 244.049 145.814 242.19 145.286C240.974 144.941 240.047 145.506 240.684 146.773C241.757 148.906 242.146 150.887 239.957 153.088C242.491 152.918 244.136 152.274 246.14 151.545ZM190.236 145.127C185.691 144.713 181.951 142.565 178.619 139.218C177.879 143.98 179.677 147.284 183.537 148.539C188.076 150.016 192.597 149.162 197.087 148.196C196.134 148.104 195.19 148.19 194.25 148.306C189.714 148.868 185.391 148.126 181.306 146.105C180.516 145.714 179.654 145.008 180.108 144.007C180.565 142.999 181.511 143.523 182.219 143.849C186.66 145.889 191.337 145.483 196.003 145.128C194.231 145.128 192.459 145.128 190.236 145.127ZM172.438 145.705C172.346 145.577 172.264 145.439 172.155 145.328C172.123 145.295 171.96 145.316 171.947 145.349C171.046 147.539 172.457 149.141 173.366 150.866C173.856 151.794 175.089 152.315 174.986 153.754C171.008 154.4 170.724 150.505 168.733 148.754C168.095 150.482 169.231 151.967 168.849 153.78C172.33 153.854 175.527 155.379 179.099 154.715C175.339 152.875 173.168 149.999 172.438 145.705ZM205.593 153.708C207.83 153.771 210.068 151.641 212.54 153.587C211.592 154.917 210.689 155.856 209.187 155.99C207.842 156.11 206.499 156.247 205.155 156.376C211.98 156.9 211.98 156.9 215.675 153.233C211.826 151.146 208.054 151.812 204.405 154.013C204.702 153.938 205 153.863 205.593 153.708ZM208.701 115.738C207.947 115.308 207.243 114.736 206.294 114.875C205.654 115.415 205.634 116.129 205.643 116.86C205.665 118.672 206.557 119.62 208.372 119.862C209.352 119.992 210.511 120.353 210.884 119.244C211.367 117.805 210.071 116.973 209.17 116.088C209.114 116.032 209.043 115.991 208.701 115.738ZM211.939 141.596C209.029 142.631 205.838 142.628 202.817 143.864C203.945 145.484 205.125 144.993 206.336 144.482C208.101 143.736 209.748 142.512 211.72 142.513C214.09 142.515 215.823 140.887 217.962 140.329C216.084 140.715 214.205 141.1 211.939 141.596ZM234.741 147.409C234.821 146.736 235.258 146.018 234.37 145.327C232.867 146.666 232.524 148.617 231.884 150.323C231.143 152.3 228.911 152.889 228.053 154.688C230.041 156.041 229.686 153.766 230.456 153.407C232.926 152.255 233.589 149.892 234.741 147.409ZM198.341 88.6314C198.796 89.6227 199.103 91.0693 200.468 90.7887C201.924 90.4896 201.253 88.9398 201.465 87.9291C201.544 87.5541 201.468 87.1366 201.413 86.7454C201.316 86.0574 200.973 85.5434 200.238 85.4329C199.424 85.3104 198.785 85.6835 198.516 86.409C198.304 86.98 198.342 87.6438 198.341 88.6314ZM229.927 146.01C230.49 144.994 231.299 144.082 231.233 142.669C229.052 145.904 225.689 147.035 221.685 147.979C225.223 149.39 227.454 147.769 229.927 146.01ZM238.262 149.523C237.743 148.465 237.301 149.028 236.948 149.623C236.133 150.994 235.363 152.39 234.542 153.833C235.558 154.287 236.652 154.4 236.887 153.4C237.189 152.111 238.21 151.16 238.262 149.523ZM186.252 136.865C187.187 136.24 187.908 136.802 188.655 137.283C190.094 138.208 191.663 138.821 193.492 139.018C190.986 137.694 188.022 137.024 186.759 133.914C185.93 135.006 184.986 135.75 186.252 136.865ZM186.79 169.668C185.806 169.498 184.823 169.328 183.151 169.04C186.686 171.126 189.916 172.081 193.137 173.098C191.143 171.975 189.148 170.853 186.79 169.668ZM191.478 141.225C189.302 141.507 187.924 139.981 186.271 138.888C185.936 139.488 185.622 140.051 185.294 140.639C187.451 141.87 189.689 141.623 191.82 141.842C192.467 141.908 192.642 141.369 191.478 141.225ZM209.192 111.962C209.161 109.969 208.183 109.432 206.061 110.33C206.526 111.735 207.785 111.762 209.192 111.962ZM187.885 155.677C187.781 155.773 187.275 155.717 187.75 156.027C187.811 156.067 187.907 156.056 187.986 156.064C189.103 156.178 190.218 156.346 191.338 156.386C192.122 156.414 193.043 156.419 192.763 154.816C191.22 155.088 189.687 155.359 187.885 155.677ZM201.387 146.083C199.653 145.196 199.178 145.964 199.38 147.823C200.146 147.176 201.648 147.899 201.387 146.083Z" fill="#FFFDF2"/>
<path d="M169.661 289.074C166.689 287.775 164.53 285.737 162.404 283.067C159.928 288.87 155.845 292.63 150.467 295.027C149.283 293.998 149.648 292.791 149.648 291.722C149.629 259.72 149.634 227.718 149.635 195.716C149.635 195.151 149.615 194.585 149.625 194.019C149.655 192.293 149.563 190.65 146.959 190.274C152.361 187.454 157.619 184.959 162.76 180.91C163.587 194.967 162.88 208.393 163.186 222.044C163.725 221.794 164.04 221.727 164.248 221.54C173.775 212.996 188.524 215.34 196.028 227.074C199.323 232.226 201.115 237.896 201.937 243.854C203.371 254.241 202.896 264.51 198.838 274.34C195.464 282.511 190.226 288.765 180.972 290.462C177.14 291.165 173.408 290.734 169.661 289.074ZM163.132 235.509C163.14 249.176 163.261 262.845 163.094 276.51C163.035 281.357 165.409 284.509 169.117 286.838C174.235 290.053 179.685 288.66 183.017 283.577C184.582 281.189 185.654 278.577 186.396 275.831C189.454 264.521 189.899 253.042 188.511 241.462C187.856 235.993 186.954 230.544 184.374 225.6C180.217 217.634 171.687 216.459 165.297 222.835C163.853 224.275 162.99 225.854 163.107 227.99C163.235 230.328 163.134 232.679 163.132 235.509Z" fill="#FFFDF2"/>
<path d="M65.1706 301.777C54.9047 296.783 45.0412 291.344 34.4673 287.466C27.4422 284.889 20.2692 283.159 12.6409 284.397C6.9882 285.314 3.68302 288.741 4.07532 293.628C4.2035 295.226 5.21565 296.399 5.91163 297.789C2.09309 298.237 -0.649114 295.142 0.134054 291.358C1.07496 286.812 4.23401 284.14 8.2854 282.421C15.0248 279.563 21.9012 280.245 28.7523 281.937C35.2849 283.549 41.4721 286.166 47.687 288.69C50.7958 289.953 50.981 289.839 50.9823 286.543C50.9933 258.4 50.9864 230.257 51.0012 202.113C51.0053 194.261 55.0817 188.456 62.1148 186.257C63.0777 185.956 64.0743 185.512 65.346 185.926C63.2818 190.975 64.242 196.162 64.228 201.255C64.145 231.42 64.2319 261.585 64.1364 291.75C64.1279 294.437 64.8653 295.777 67.4546 296.678C75.9278 299.627 84.3123 302.893 93.2321 304.234C100.252 305.289 107.242 305.433 113.821 301.941C115.606 300.994 116.865 299.341 118.706 298.436C119.558 299.615 118.883 300.571 118.488 301.464C115.435 308.373 109.744 311.616 102.568 312.544C95.1389 313.505 88.1403 311.552 81.2828 308.957C75.8325 306.895 70.6096 304.317 65.1706 301.777Z" fill="#FFFDF2"/>
<path d="M355.715 291.721C353.697 289.798 352.223 287.69 350.989 285.394C349.797 283.177 349.226 280.743 348.466 278.055C347.486 279.752 346.713 281.229 345.813 282.625C339.83 291.915 326.25 294.557 317.382 287.982C311.608 283.701 310.163 277.494 310.788 270.705C311.553 262.398 316.209 256.555 323.023 252.21C329.546 248.051 336.897 245.686 343.944 242.667C349.381 240.337 348.359 241.264 348.412 235.867C348.442 232.724 348.661 229.57 348.002 226.441C346.938 221.388 343.77 218.782 338.626 218.826C336.41 218.845 334.288 219.286 332.288 220.229C327.84 222.326 325.852 226.835 327.274 231.545C327.716 233.009 328.342 234.415 328.361 235.996C328.402 239.301 326.875 241.463 323.819 242.306C321.264 243.011 318.281 241.677 316.824 239.178C314.535 235.251 315.273 229.913 318.72 225.895C323.544 220.273 329.952 217.913 337.091 217.241C340.894 216.883 344.675 217.191 348.346 218.408C356.347 221.061 361.252 227.756 361.29 236.377C361.348 249.634 361.329 262.892 361.291 276.15C361.28 280.162 361.788 284.065 363.477 287.717C366.133 293.46 370.482 296.664 377.034 296.363C377.676 296.334 378.324 296.372 378.967 296.412C379.096 296.42 379.216 296.58 379.339 296.672C375.845 300.426 362.594 297.7 355.715 291.721ZM348.433 249.59C348.334 247.39 348.669 245.153 348.121 242.779C344.678 243.952 341.704 245.379 338.742 246.845C332.859 249.756 328.476 254.115 325.983 260.221C323.027 267.46 322.395 274.809 325.731 282.095C328.347 287.809 334.159 289.636 339.466 286.314C345.241 282.698 347.96 277 348.344 270.443C348.74 263.675 348.432 256.865 348.433 249.59Z" fill="#FFFDF2"/>
<path d="M114.484 288.372C111.397 285.779 110.218 282.372 109.358 278.287C108.428 279.908 107.731 281.203 106.961 282.453C101.077 292.008 86.9214 294.768 77.975 287.962C72.6576 283.916 71.1384 278.092 71.5724 271.764C72.3252 260.789 79.1621 254.294 88.4911 249.966C94.4274 247.212 100.509 244.761 106.585 242.324C108.542 241.539 109.335 240.451 109.192 238.341C108.946 234.72 109.392 231.078 108.732 227.455C107.742 222.011 104.271 219.141 98.7295 219.385C92.8637 219.644 88.6404 222.914 87.7867 227.865C87.412 230.038 88.2662 231.981 88.8947 233.984C90.4546 238.955 87.2596 243.195 82.4317 242.637C79.3269 242.278 77.0004 239.741 76.6369 236.4C76.1892 232.284 77.3374 228.671 80.2084 225.726C86.4124 219.362 94.2035 217.396 102.805 217.865C107.358 218.112 111.549 219.453 115.165 222.295C120.147 226.212 121.956 231.643 122.005 237.696C122.11 250.799 122.038 263.904 122.046 277.007C122.047 278.622 122.095 280.222 122.38 281.833C123.424 287.741 124.194 288.471 129.828 288.47C128.08 292.112 120.072 292.121 114.484 288.372ZM84.613 272.395C84.4782 275.506 85.0148 278.51 86.1456 281.4C88.5688 287.594 95.0564 289.853 100.628 286.231C106.097 282.676 108.81 277.246 109.066 270.915C109.402 262.608 109.164 254.277 109.139 245.956C109.136 245.114 109.424 244.173 108.709 243.44C95.2447 247.57 84.9896 255.356 84.613 272.395Z" fill="#FFFDF2"/>
<path d="M301.708 263.466C301.855 269.906 301.513 276.139 303.01 282.258C305.743 293.434 314.387 300.419 325.868 300.698C326.674 300.718 327.678 300.323 328.233 301.37C327.856 302.26 327.039 302.176 326.366 302.188C314.074 302.419 303.463 298.578 295.387 289C290.829 283.595 288.864 277.132 288.847 270.141C288.79 245.884 288.829 221.627 288.83 197.369C288.83 196.076 288.788 194.781 288.811 193.488C288.843 191.627 288.339 190.127 286.133 189.292C291.274 186.703 296.344 184.115 301.511 181.106C301.356 208.592 302.438 235.907 301.708 263.466Z" fill="#FFFDF2"/>
<path d="M233.796 255.472C230.343 257.101 227.065 258.681 223.743 260.163C222.462 260.735 221.761 261.501 222.066 262.95C223.963 271.956 227.303 280.192 235.179 285.679C242.39 290.703 250.048 290.957 257.909 287.122C258.882 286.648 259.732 285.773 261.139 285.926C261.219 287.288 260.134 287.699 259.337 288.2C242.774 298.62 220.771 292.266 212.413 274.412C206.179 261.095 205.83 247.339 211.168 233.666C214.945 223.993 222.024 217.732 232.581 216.572C241.274 215.616 248.923 218.266 254.537 225.353C260.387 232.737 258.636 241.864 250.511 246.751C245.169 249.964 239.478 252.516 233.796 255.472ZM221.06 249.594C221.162 252.707 220.716 255.867 221.887 259.261C229.438 255.708 237.382 253.043 242.166 245.685C246.34 239.265 247.256 232.331 244.569 225.074C242.757 220.178 238.581 217.559 234.038 218.464C230.417 219.184 228.148 221.666 226.489 224.772C222.428 232.38 221.232 240.636 221.06 249.594Z" fill="#FFFDF2"/>
<path d="M262.662 189.249C267.578 186.437 272.69 184.237 277.246 181.007C278.537 182.2 278.215 183.479 278.215 184.62C278.232 212.837 278.223 241.055 278.221 269.273C278.221 271.375 278.201 273.478 278.257 275.579C278.413 281.467 279.432 286.915 285.791 289.778C283.269 290.439 280.795 290.54 278.347 289.91C270.306 287.838 265.098 280.789 265.022 271.524C264.905 257.376 264.971 243.226 264.965 229.076C264.961 217.595 264.922 206.114 265.003 194.633C265.019 192.409 264.768 190.525 262.662 189.249Z" fill="#FFFDF2"/>
<path d="M109.359 123.659C108.415 141.54 111.82 158.454 117.843 174.942C119.007 178.128 120.028 181.37 120.992 184.622C121.24 185.46 121.942 186.374 121.032 187.658C117.749 183.271 114.704 178.681 108.629 177.699C109.937 175.286 111.947 175.548 114.102 175.529C112.814 171.303 111.542 167.325 110.39 163.313C107.045 151.675 105.015 139.789 105.414 127.685C106.453 96.1208 117.251 68.6848 140.699 46.8631C146.23 41.7158 152.548 37.6121 159.097 33.8852C164.684 30.7058 169.871 27.2368 173.527 21.6428C176.756 16.7027 182.642 15.8728 187.943 18.9881C189.333 19.8045 190.583 20.8532 191.943 21.7253C195.139 23.7761 196.195 23.5515 198.316 20.3278C199.303 20.9967 199.293 21.8785 198.93 22.8103C198.423 24.1109 197.442 24.9295 196.075 25.1803C194.018 25.5579 192.259 24.731 190.624 23.6203C188.799 22.3811 186.863 21.437 184.709 20.9107C179.599 19.6626 175.76 22.0618 172.801 25.6648C168.874 30.446 164.084 34.0692 158.985 37.364C130.904 55.5078 115.24 81.5514 110.05 114.241C109.57 117.261 109.581 120.358 109.359 123.659Z" fill="#FFFDF2"/>
<path d="M298.913 124.665C298.104 105.57 292.839 88.0621 283.249 71.787C274.689 57.2588 262.972 45.9125 248.995 36.6919C244.676 33.8431 240.77 30.5297 237.531 26.3484C232.518 19.8766 226.081 18.9765 219.084 23.2952C217.494 24.2766 215.949 25.3324 213.964 25.2478C212.465 25.1839 211.316 24.5018 210.661 23.1536C210.182 22.1691 210.007 21.1509 211.087 20.3898C211.927 20.3921 211.892 21.137 212.161 21.57C213.117 23.1057 214.403 23.3894 215.884 22.4931C217.263 21.6589 218.553 20.677 219.879 19.7565C225.802 15.6461 232.51 16.4184 236.553 22.2362C240.186 27.4632 244.964 31.1368 250.351 34.1774C272.348 46.5925 286.71 65.3271 295.473 88.6689C300.853 103.001 303.134 117.872 302.517 133.15C301.994 146.076 299.204 158.59 295.079 170.821C294.361 172.95 292.521 173.756 289.916 174.934C295.687 158.319 299.473 141.974 298.913 124.665Z" fill="#FFFDF2"/>
<path d="M221.067 57.8962C221.555 55.7253 222.019 53.762 222.414 51.7851C222.712 50.2946 223.466 49.6253 225.075 49.6422C228.383 49.677 231.694 49.5686 235.001 49.4389C236.639 49.3747 237.549 49.9661 237.848 51.6436C238.458 55.0544 239.287 58.4287 239.816 61.8504C240.644 67.2021 238.615 71.1558 233.758 73.5933C232.104 74.4238 231.596 75.6181 231.596 77.2673C231.597 80.256 231.679 83.2479 231.567 86.2325C231.482 88.4806 232.144 89.991 234.539 90.4253C235.149 90.5359 235.805 90.7648 236.024 91.5017C234.551 92.4627 226.609 92.5627 224.491 91.6386C224.649 90.5006 225.679 90.3914 226.449 90.1559C228.134 89.6403 228.69 88.5426 228.66 86.8771C228.603 83.6469 228.625 80.415 228.643 77.1839C228.651 75.6052 228.15 74.4811 226.627 73.6693C221.583 70.9796 219.682 66.9153 220.59 61.2138C220.755 60.179 220.873 59.1367 221.067 57.8962Z" fill="#FFFDF2"/>
<path d="M396.2 280.237C401.072 282.154 405.079 284.868 407.829 289.24C412.448 296.586 410.056 305.745 402.452 309.528C401.557 309.974 400.649 310.62 399.588 310.273C399.235 309.776 399.449 309.43 399.701 309.107C405.995 301.051 402.427 288.9 392.952 283.695C387.008 280.429 380.661 280.034 374.118 280.779C373.283 280.874 372.422 281.309 371.619 280.61C374.997 277.714 388.332 277.497 396.2 280.237Z" fill="#FFFDF2"/>
<path d="M234.011 172.552C247.066 169.379 259.977 169.185 273.033 171.914C241.281 170.998 212.681 180.058 186.877 198.978C188.335 192.262 215.82 177.065 234.011 172.552Z" fill="#FFFDF2"/>
<path d="M182.005 62.2977C182.156 57.6933 181.6 53.2384 182.766 48.3367C184.726 50.1973 184.329 51.9596 184.486 53.4347C184.895 57.2822 184.927 61.1682 185.211 65.0313C185.383 67.3595 184.593 69.1715 182.667 70.4207C181.135 71.4141 180.578 72.7848 180.629 74.5315C180.753 78.7287 180.566 82.9346 181.08 87.1214C181.217 88.2346 181.197 89.3862 181.09 90.505C180.97 91.7676 180.258 92.6718 178.889 92.5986C177.592 92.5293 177.119 91.5586 177.139 90.395C177.177 88.2152 177.201 86.0285 177.398 83.8598C177.683 80.7143 177.736 77.571 177.677 74.4186C177.645 72.6777 177.034 71.3153 175.504 70.3532C174.045 69.4354 173.27 68.0605 173.225 66.3045C173.086 60.9596 173.671 55.6582 174.178 50.3522C174.232 49.7787 174.352 49.2199 175.135 48.9601C176.476 49.5537 176.272 50.8763 176.291 52.0041C176.352 55.4784 176.31 58.9543 176.34 62.4292C176.348 63.2639 176.141 64.1811 177.371 65.5478C177.722 59.5866 178.036 54.2689 178.358 48.8002C180.329 49.2908 180.153 50.4813 180.18 51.4498C180.275 54.8425 180.281 58.2376 180.345 61.6314C180.367 62.8013 180.367 63.9981 181.188 65.0191C182.337 64.3157 181.861 63.3293 182.005 62.2977Z" fill="#FFFDF2"/>
<path d="M195.821 14.6694C194.349 14.386 193.094 14.5122 192.588 15.8883C191.886 17.7984 190.481 17.8461 189.081 17.1951C187.508 16.4636 186.652 15.0677 187.1 13.2167C187.655 10.9242 190.353 9.52239 193.163 10.1064C196.947 10.8928 199.283 13.4987 201.14 16.6548C201.707 17.6189 202.234 18.6064 202.863 19.7314C203.729 18.6079 203.388 17.0423 204.58 16.2825C205.836 16.8985 205.353 18.4084 206.34 19.2682C207.38 18.832 207.481 17.6802 207.957 16.8332C209.708 13.7182 211.881 11.105 215.543 10.1764C217.47 9.68757 219.252 10.0902 220.806 11.2505C222.084 12.2054 222.557 13.5908 222.031 15.126C221.552 16.5217 220.534 17.3932 218.994 17.5316C217.86 17.6336 217.035 17.3996 216.483 16.1862C215.524 14.0806 213.93 13.8192 212.075 15.3935C209.574 17.5171 208.355 20.412 207.471 23.4728C207.069 24.8671 206.78 26.296 206.335 27.6757C206.089 28.4409 205.651 29.241 204.679 29.2061C203.654 29.1694 203.116 28.4236 202.869 27.5121C202.489 26.1114 202.211 24.6826 201.822 23.2849C200.845 19.7818 199.296 16.653 195.821 14.6694Z" fill="#FFFDF2"/>
<path d="M131.352 340.06C131.563 340.845 132.342 341.173 132.104 342.121C130.24 342.728 128.343 342.752 126.71 342.157C127.509 335.484 127.439 329.068 126.752 322.167C130.68 322.218 135.004 321.139 139.043 323.356C141.951 324.952 142.397 329.012 140.089 331.524C139.393 332.281 138.533 332.888 137.568 333.72C139.43 336.439 140.693 339.501 143.391 341.639C140.727 343.168 138.698 342.796 137.214 340.575C136.049 338.831 135 337.01 133.881 335.236C133.442 334.539 132.922 333.807 131.961 334.121C131.054 334.418 131.288 335.314 131.273 336.001C131.244 337.291 131.294 338.583 131.352 340.06ZM131.269 329.945C131.787 331.853 133.655 332.297 135.709 330.993C137.424 329.904 137.714 328.289 137.039 326.567C136.276 324.622 134.491 324.184 132.642 324.359C130.413 324.57 131.501 326.426 131.27 327.595C131.148 328.214 131.256 328.877 131.269 329.945Z" fill="#FFFDF2"/>
<path d="M262.524 328.503C262.43 326.371 263.01 324.363 261.476 322.455C265.919 322.269 270.336 320.996 274.398 323.436C277.491 325.292 277.568 329.864 274.734 332.179C274.18 332.631 273.548 332.989 272.698 333.561C274.606 336.385 276.011 339.431 278.721 341.657C275.863 343.144 273.963 342.747 272.501 340.491C271.359 338.729 270.278 336.929 269.155 335.154C268.762 334.534 268.335 333.88 267.445 334.09C266.504 334.313 266.549 335.129 266.533 335.846C266.486 337.915 266.252 340.013 267.566 342.023C265.411 342.723 263.497 342.755 261.524 342.11C263.393 337.677 262.171 333.151 262.524 328.503ZM272.114 329.863C272.237 329.567 272.385 329.279 272.479 328.974C272.93 327.508 272.519 326.209 271.385 325.293C270.218 324.349 268.726 323.913 267.313 324.545C265.883 325.185 266.725 326.674 266.528 327.777C266.445 328.244 266.516 328.737 266.513 329.218C266.498 331.656 267.096 332.153 269.511 331.635C270.469 331.429 271.326 331.002 272.114 329.863Z" fill="#FFFDF2"/>
<path d="M231.303 336.863C227.932 329.449 233.292 322.275 239.799 321.979C245.702 321.711 249.887 324.703 250.992 330.076C252.053 335.231 249.422 340.097 244.562 341.965C239.407 343.947 234.209 341.998 231.303 336.863ZM244.051 325.416C239.739 322.905 235.704 324.632 234.739 329.431C234.37 331.266 234.383 333.138 234.77 334.96C235.437 338.099 238.298 340.533 241.02 340.409C243.881 340.278 246.467 337.847 246.894 334.584C247.325 331.284 246.909 328.13 244.051 325.416Z" fill="#FFFDF2"/>
<path d="M155.187 342.502C153.893 342.431 152.723 342.805 151.722 342.015C154.873 336.195 156.811 329.896 159.426 323.884C159.777 323.078 160.059 322.154 161.171 322.107C162.447 322.052 162.722 323.104 163.08 323.979C164.484 327.417 165.841 330.873 167.236 334.314C168.283 336.9 168.944 339.67 171.194 342.036C168.762 342.763 166.682 342.655 164.742 342.263C164.164 341.557 164.653 341.196 164.77 340.76C165.324 338.7 164.299 337.287 162.17 337.186C161.041 337.133 159.905 337.123 158.778 337.187C156.613 337.31 155.532 338.745 156.34 340.787C156.847 342.067 156.531 342.383 155.187 342.502ZM162.593 334.385C162.642 332.224 161.48 330.52 160.481 328.367C159.611 330.578 158.308 332.245 158.347 334.442C159.761 334.818 161.032 334.721 162.593 334.385Z" fill="#FFFDF2"/>
<path d="M309.269 328.493C309.969 326.744 310.588 325.164 311.232 323.593C311.543 322.835 311.885 322.093 312.897 322.074C313.928 322.055 314.259 322.809 314.565 323.567C316.317 327.915 318.064 332.264 319.797 336.619C320.507 338.403 321.03 340.273 322.662 341.939C320.35 342.837 318.356 342.566 316.504 342.288C315.912 341.6 316.386 341.226 316.508 340.788C317.08 338.736 316.076 337.331 313.949 337.191C313.223 337.144 312.494 337.146 311.766 337.141C307.938 337.116 306.987 338.349 308.09 342.077C306.399 342.66 304.765 342.897 303.088 341.877C306.124 337.825 307.099 332.987 309.269 328.493ZM313.781 331.918C313.3 330.766 312.819 329.614 312.184 328.092C311.157 330.418 310.282 332.283 309.791 334.53C311.361 334.709 312.755 334.911 314.101 334.408C314.626 333.579 314.062 332.944 313.781 331.918Z" fill="#FFFDF2"/>
<path d="M207.127 202.061C205.807 202.775 204.797 203.74 203.28 204.095C206.865 194.466 243.854 180.754 256.856 184.36C239.145 186.961 222.657 192.936 207.127 202.061Z" fill="#FFFDF2"/>
<path d="M185.735 342.515C184.908 342.427 184.217 342.505 183.773 341.654C185.065 340.478 184.897 338.852 184.887 337.247C184.866 333.939 184.91 330.63 184.862 327.322C184.848 326.342 185.308 325.096 183.995 324.558C182.682 324.019 181.475 324.381 180.396 325.272C179.989 325.609 179.831 326.299 179.116 326.218C177.841 323.032 178.42 322.042 181.59 322.03C185.06 322.017 188.53 322.019 192 322.035C195.274 322.05 195.78 322.852 194.682 326.225C194.531 326.236 194.311 326.312 194.239 326.241C193.014 325.008 191.667 323.678 189.831 324.523C188.018 325.358 189.046 327.241 188.973 328.632C188.819 331.529 188.914 334.44 188.93 337.345C188.939 338.867 188.688 340.447 189.985 341.671C188.672 342.969 187.225 342.338 185.735 342.515Z" fill="#FFFDF2"/>
<path d="M105.864 330.409C105.865 329.199 105.905 328.227 105.852 327.259C105.798 326.261 106.186 325.03 104.856 324.539C103.536 324.051 102.309 324.259 101.308 325.34C100.986 325.686 100.748 326.153 100.181 326.168C98.7345 323.368 99.4202 322.053 102.363 322.039C105.921 322.023 109.48 322.033 113.039 322.043C116.344 322.053 116.811 322.771 115.763 326.2C115.615 326.218 115.38 326.31 115.322 326.245C114.079 324.856 112.615 323.601 110.722 324.522C109.08 325.32 110.01 327.141 109.949 328.484C109.814 331.471 109.907 334.467 109.899 337.46C109.895 338.987 109.73 340.547 111.226 341.882C109.042 342.877 107.13 342.619 105.015 342.154C106.594 338.321 105.594 334.448 105.864 330.409Z" fill="#FFFDF2"/>
<path d="M210.706 324.73C208.402 323.665 206.887 324.791 205.551 326.36C203.853 323.497 204.592 322.067 207.653 322.047C210.959 322.026 214.266 322.028 217.572 322.035C221.324 322.042 221.514 322.288 220.809 326.107C220.655 326.134 220.423 326.237 220.36 326.173C219.065 324.862 217.579 323.656 215.706 324.527C213.91 325.362 214.922 327.249 214.84 328.646C214.686 331.298 214.792 333.966 214.801 336.627C214.807 338.453 214.526 340.34 216.228 342.03C213.906 342.738 211.939 342.77 210.207 342.215C211.731 336.309 210.997 330.575 210.706 324.73Z" fill="#FFFDF2"/>
<path d="M223 360.436C220.355 359.538 217.879 358.849 215.23 359.174C212.769 359.475 210.961 360.928 210.51 363.047C210.081 365.055 211.674 367.119 213.62 367.095C214.32 367.087 214.901 366.853 215.243 366.234C215.604 365.582 215.206 365.208 214.683 364.863C213.881 364.333 213.672 363.575 214.212 362.78C214.831 361.87 215.778 361.689 216.798 361.978C219.127 362.639 219.649 365.847 217.65 367.728C216.085 369.201 214.223 369.8 212.075 368.974C209.835 368.112 208.833 366.375 208.723 364.109C208.54 360.331 211.875 357.284 216.407 356.972C218.041 356.86 219.636 357.135 221.209 357.487C226.876 358.755 232.537 361.233 238.325 356.851C237.477 360.089 234.813 361.905 231.465 362.087C228.564 362.244 225.906 361.233 223 360.436Z" fill="#FFFDF2"/>
<path d="M201.617 362.639C201.677 367.959 198.21 370.728 194.235 368.706C192.414 367.781 191.445 366.242 191.789 364.147C192.009 362.804 192.977 362.067 194.297 361.874C195.331 361.722 196.278 361.971 196.713 363.03C197.379 364.654 195.326 364.529 194.965 365.668C195.302 366.821 196.245 367.207 197.347 366.99C198.607 366.741 199.502 365.904 199.854 364.621C200.406 362.611 199.384 360.671 197.232 359.757C195.144 358.871 192.969 358.9 190.819 359.479C188.017 360.234 185.273 361.245 182.439 361.837C179.257 362.501 176.135 362.254 173.674 359.702C173.078 359.083 172.347 358.493 172.435 357.491C172.811 357.054 173.197 357.236 173.519 357.465C177.009 359.952 180.795 359.684 184.67 358.706C186.859 358.153 189.032 357.488 191.253 357.121C196.323 356.282 200.141 358.31 201.617 362.639Z" fill="#FFFDF2"/>
<path d="M348.624 330.772C362.994 331.213 377.146 331.127 391.407 331.865C390.932 333.3 389.977 332.912 389.275 332.926C379.435 333.125 369.593 333.269 359.752 333.465C355.802 333.543 351.854 333.726 347.904 333.832C347.183 333.851 346.441 333.815 345.742 333.656C344.911 333.468 344.627 332.796 344.69 331.984C344.751 331.206 345.234 330.842 345.969 330.809C346.774 330.773 347.582 330.782 348.624 330.772Z" fill="#FFFDF2"/>
<path d="M293.213 329.026C293.502 333.463 292.579 337.748 293.936 342.076C292.17 342.881 290.275 342.552 288.68 342.272C289.466 335.493 289.594 329.042 288.571 322.31C290.207 321.834 292.088 321.86 294.304 322.438C292.539 324.478 293.268 326.685 293.213 329.026Z" fill="#FFFDF2"/>
<path d="M47.2297 333.323C43.7751 333.129 40.5554 332.943 37.3374 332.731C37.0388 332.711 36.7511 332.527 36.0098 332.255C37.8642 331.541 39.4195 331.473 40.9348 331.42C44.4839 331.299 48.0372 331.306 51.5883 331.238C58.7675 331.099 65.9462 330.935 73.1256 330.807C74.2175 330.787 75.6049 330.539 75.6108 332.27C75.6168 333.99 74.1858 333.803 73.1236 333.788C64.5703 333.664 56.0178 333.485 47.2297 333.323Z" fill="#FFFDF2"/>
<path d="M204.647 378.661C202.693 376.388 202.004 373.957 202.674 371.142C203.158 369.108 203.477 367.036 203.903 364.988C204.064 364.214 204.184 363.38 204.995 363.003C205.657 362.901 205.999 363.298 206.112 363.764C206.925 367.116 208.2 370.419 207.896 373.931C207.72 375.97 207.385 378.148 204.647 378.661Z" fill="#FFFDF2"/>
<path d="M205.909 7.83535C204.392 6.06917 203.847 6.16888 203.07 8.01311C202.427 9.53857 202.907 11.174 202.563 12.8127C199.582 9.79059 200.431 2.30432 203.826 0.270279C204.884 -0.363587 205.47 0.229803 206.095 0.896476C208.885 3.87458 209.234 9.15795 206.739 12.9353C205.818 11.2957 206.617 9.51522 205.909 7.83535Z" fill="#FFFDF2"/>
<path d="M206.437 34.6483C205.405 36.4977 205.654 38.408 205.329 40.2127C205.019 41.9341 205.408 43.7411 204.739 45.4575C203.464 45.1394 203.884 44.1645 203.833 43.4716C203.593 40.2063 203.86 36.876 202.078 33.8648C201.557 32.9842 201.842 31.9639 202.71 31.2631C203.647 30.5057 204.685 30.1238 205.83 30.7484C206.872 31.3161 206.861 32.2701 206.631 33.2814C206.542 33.6709 206.534 34.0789 206.437 34.6483Z" fill="#FFFDF2"/>
<path d="M334.701 331.651C338.211 328.078 338.212 328.078 341.533 331.721C341.637 331.835 341.687 331.999 341.776 332.167C341.67 333.247 340.671 333.66 340.041 334.343C339.455 334.979 339.063 335.834 337.85 336.266C336.911 334.739 334.863 333.993 334.701 331.651Z" fill="#FFFDF2"/>
<path d="M80.5512 334.384C79.8934 333.59 78.9666 333.246 78.7349 332.13C79.6243 331.127 80.5679 330.065 81.5091 329.001C82.2501 328.163 82.868 328.441 83.4781 329.182C84.2882 330.166 85.1273 331.127 86.0568 332.219C85.1646 333.787 83.8436 334.982 82.5621 336.128C81.5549 335.866 81.2433 335.043 80.5512 334.384Z" fill="#FFFDF2"/>
<path d="M203.801 360.519C202.769 359.275 202.744 358.194 203.876 357.227C204.731 356.497 205.677 356.518 206.497 357.252C207.364 358.027 207.646 359.013 206.96 360.057C206.169 361.261 205.154 361.595 203.801 360.519Z" fill="#FFFDF2"/>
</svg>
